<svg version="1.1" id="Layer_1" xmlns="http://www.w3.org/2000/svg" xmlns:xlink="http://www.w3.org/1999/xlink" x="0px" y="0px"
	 width="100%" viewBox="0 0 1800 642" enable-background="new 0 0 1800 642" xml:space="preserve">
<path fill="#FEFFFF" opacity="1.000000" stroke="none" 
	d="
M1145.000000,643.000000 
	C763.333313,643.000000 382.166656,643.000000 1.000000,643.000000 
	C1.000000,429.000000 1.000000,215.000000 1.000000,1.000000 
	C601.000000,1.000000 1201.000000,1.000000 1801.000000,1.000000 
	C1801.000000,215.000000 1801.000000,429.000000 1801.000000,643.000000 
	C1582.500000,643.000000 1364.000000,643.000000 1145.000000,643.000000 
M500.801056,432.080170 
	C500.737183,419.053864 500.673340,406.027527 500.801971,392.082825 
	C500.813354,378.290253 500.652344,364.494141 500.935913,350.707153 
	C501.027008,346.278900 499.988068,342.951508 495.871582,340.079620 
	C484.041412,328.485138 472.211273,316.890686 460.326965,305.243134 
	C464.299866,301.260681 468.281036,297.233704 472.302521,293.247437 
	C478.335693,287.267059 483.870728,280.618652 490.589966,275.541077 
	C497.760040,270.122833 502.855530,264.598846 500.805267,254.083893 
	C500.805267,212.693237 500.805267,171.302582 500.805267,129.893250 
	C487.048065,129.893250 473.870697,129.893250 460.421265,129.893250 
	C460.421265,132.188080 460.421509,134.009399 460.421265,135.830704 
	C460.416504,171.958984 460.473267,208.087585 460.280945,244.214844 
	C460.266724,246.889969 458.461304,249.555557 456.917023,252.578323 
	C438.851379,270.138397 420.785767,287.698456 402.486237,305.485901 
	C415.955719,318.430511 428.900208,330.870575 442.126099,343.899323 
	C447.311005,349.031403 452.644165,354.026459 457.591187,359.378387 
	C459.089935,360.999817 460.222137,363.577637 460.318756,365.770416 
	C460.733795,375.188385 460.700470,384.626160 460.614716,394.956360 
	C460.686432,407.297211 460.758118,419.638031 460.538910,432.875824 
	C460.538910,452.432800 460.538910,471.989777 460.538910,492.524658 
	C462.010559,491.130859 462.789398,490.557953 463.363800,489.824799 
	C474.522461,475.583618 485.527435,461.219177 496.874237,447.129944 
	C500.377838,442.779541 501.528473,438.281708 500.801056,432.080170 
M382.780640,555.930847 
	C394.436676,547.683838 406.119995,539.474731 417.707947,531.133118 
	C418.909332,530.268311 420.314697,528.620605 420.323059,527.327759 
	C420.418640,512.546082 420.261414,497.762848 420.473663,482.097290 
	C420.503662,475.635925 420.590881,469.174255 420.552032,462.713287 
	C420.464417,448.145386 420.314453,433.577820 420.504730,418.127136 
	C420.536163,403.203247 420.611877,388.279114 420.530884,373.355835 
	C420.522736,371.855530 419.969696,369.977997 418.977814,368.930450 
	C415.115448,364.851105 410.974243,361.035736 406.654144,356.511444 
	C389.941925,340.093353 373.208008,323.697052 356.592682,307.181488 
	C355.890198,306.483215 355.680481,304.101624 356.270691,303.477112 
	C361.290680,298.165100 366.500732,293.028595 371.746857,287.935303 
	C382.786621,277.217163 393.882874,266.557190 405.580444,255.653870 
	C409.492554,251.800613 413.667816,248.170456 417.204407,243.998856 
	C418.941254,241.950180 420.425323,238.903519 420.441620,236.298615 
	C420.653412,202.502518 420.584778,168.704666 420.567780,134.907242 
	C420.566895,133.161957 420.394165,131.416779 420.309937,129.831421 
	C406.579559,129.831421 393.510010,129.831421 380.160156,129.831421 
	C380.160156,132.061172 380.160370,133.881042 380.160126,135.700912 
	C380.156433,163.671188 380.102051,191.641693 380.216431,219.611481 
	C380.229889,222.907486 379.149414,225.022339 376.765045,227.303787 
	C368.001526,235.688995 359.554382,244.404846 350.374817,253.257919 
	C347.214569,256.326904 344.054321,259.395905 339.950378,263.381348 
	C339.950378,258.859192 339.950378,255.931076 340.131714,252.080154 
	C340.131714,198.034256 340.131714,143.988358 340.131714,89.323761 
	C394.176178,89.323761 447.377045,89.323761 500.463898,89.323761 
	C500.463898,75.627426 500.463898,62.557095 500.463898,49.446144 
	C433.529907,49.446144 366.977875,49.446144 299.999664,49.446144 
	C299.999664,51.695702 299.999725,53.658875 299.999664,55.622047 
	C299.997894,113.757774 299.989594,171.893494 300.001892,230.029221 
	C300.003601,238.021118 300.107819,246.013000 300.029449,254.932938 
	C300.075714,290.956848 300.122009,326.980774 300.031708,363.932678 
	C300.076752,385.290375 300.121796,406.648041 300.029602,428.933350 
	C300.075226,454.290375 300.120850,479.647400 300.027008,505.931854 
	C300.027008,536.818542 300.027008,567.705261 300.027008,599.616272 
	C313.268555,593.291870 325.709137,587.408081 338.060699,581.342896 
	C339.073151,580.845703 340.077026,579.114746 340.079041,577.955261 
	C340.121460,553.637512 340.018860,529.319458 340.131226,504.079773 
	C340.068146,478.720428 340.005066,453.361084 340.126404,427.079620 
	C340.066040,405.387268 340.005676,383.694885 340.128845,361.092926 
	C340.128845,357.200134 340.128845,353.307343 340.128845,348.211151 
	C344.653717,352.412872 348.237885,355.741058 352.103638,359.686371 
	C360.407684,367.865112 368.835815,375.924438 376.916443,384.318237 
	C378.638336,386.106873 379.878815,389.075348 379.996490,391.563843 
	C380.428619,400.700897 380.294525,409.864716 380.205475,419.939453 
	C380.266449,441.292236 380.327423,462.645020 380.203552,484.918854 
	C380.251526,508.610260 380.299530,532.301697 380.285889,556.559082 
	C380.892670,556.398987 381.499451,556.238892 382.780640,555.930847 
M179.808350,555.086243 
	C179.743973,529.391052 179.679581,503.695831 179.806671,477.081940 
	C179.744080,452.059601 179.681473,427.037262 179.815994,401.100616 
	C179.829346,398.944641 180.104279,396.751526 179.804428,394.640015 
	C179.059174,389.391571 181.111847,385.704651 184.909439,382.105804 
	C192.340714,375.063416 199.305618,367.525726 206.398254,360.130432 
	C210.370331,355.988861 214.211441,351.721710 218.111572,347.511169 
	C218.758163,347.824005 219.404739,348.136841 220.051315,348.449677 
	C220.051315,358.967438 220.051315,369.485168 219.881851,380.926758 
	C219.940216,393.951996 219.998581,406.977264 219.881439,420.925446 
	C219.939453,443.617432 219.997452,466.309448 219.879471,489.924408 
	C219.863403,518.715027 219.880539,547.505737 219.778580,576.296082 
	C219.768661,579.096313 220.381927,580.803284 223.167236,582.049438 
	C234.075623,586.929504 244.857513,592.091858 255.707153,597.104431 
	C256.947021,597.677185 258.317688,597.966797 259.831024,598.453003 
	C259.831024,561.877258 259.831024,525.941040 259.979370,489.077240 
	C259.930206,465.720093 259.881042,442.362915 259.978516,418.077789 
	C259.931244,405.387238 259.883972,392.696655 259.983521,379.078278 
	C259.935211,365.052765 259.886932,351.027222 259.979370,336.073669 
	C259.931122,296.383942 259.882904,256.694214 259.979614,216.076630 
	C259.979614,160.527756 259.979614,104.978889 259.979614,49.387024 
	C192.676651,49.387024 126.111572,49.387024 59.330643,49.387024 
	C59.330643,62.815178 59.330643,76.005920 59.330643,89.706055 
	C112.881004,89.706055 166.099945,89.706055 219.839798,89.706055 
	C219.839798,92.004898 219.839890,93.797310 219.839783,95.589722 
	C219.838272,121.241631 219.812286,146.893570 219.844757,172.545425 
	C219.863098,187.031128 219.977570,201.516693 219.879593,216.926361 
	C219.879593,232.029343 219.879593,247.132324 219.879593,262.235321 
	C219.116928,262.706238 218.354279,263.177155 217.591614,263.648071 
	C204.998871,250.434830 192.406128,237.221573 179.847031,223.070480 
	C179.847031,191.995453 179.847031,160.920425 179.847031,129.770844 
	C165.928680,129.770844 152.695862,129.770844 139.152786,129.770844 
	C139.152786,134.112305 139.143417,138.096237 139.154297,142.080109 
	C139.228851,169.392807 139.307663,196.705521 139.206223,224.934235 
	C139.191772,229.266785 138.998199,233.609955 139.254456,237.926437 
	C139.351639,239.563644 140.076218,241.548203 141.208725,242.680298 
	C153.461838,254.928833 165.942993,266.949524 178.176743,279.217072 
	C186.958221,288.022766 195.459503,297.107880 204.257538,306.246765 
	C194.625900,315.879395 184.629883,325.876434 174.055252,336.152832 
	C163.368698,346.636597 152.645096,357.083252 142.043304,367.652039 
	C140.744308,368.946930 139.307449,370.882019 139.277863,372.544312 
	C139.097168,382.697205 139.304535,392.856995 139.209045,403.934998 
	C139.268036,427.623810 139.327026,451.312592 139.203232,475.922180 
	C139.189209,492.378571 139.124985,508.835358 139.241608,525.290833 
	C139.252823,526.873474 139.921509,529.095337 141.073990,529.927002 
	C153.306747,538.754150 165.699371,547.359802 178.332779,556.456055 
	C178.769028,556.307617 179.205276,556.159119 179.808350,555.086243 
M99.496475,386.119720 
	C99.528023,379.649658 99.784828,373.169800 99.504082,366.713318 
	C99.343452,363.019287 100.718002,360.617645 103.284164,358.127106 
	C116.959167,344.855316 130.455124,331.399109 144.628555,317.748779 
	C148.732040,313.701508 152.835526,309.654205 157.137466,305.411163 
	C139.164917,287.818878 121.545288,270.416656 103.702141,253.246750 
	C100.412956,250.081711 99.256218,246.887360 99.331833,242.386963 
	C99.557686,228.944626 99.272568,215.493698 99.495621,201.150070 
	C99.495621,177.405334 99.495621,153.660583 99.495621,129.761826 
	C85.684830,129.761826 72.474884,129.761826 59.158615,129.761826 
	C59.158615,154.415009 59.158615,178.711029 59.025734,203.935013 
	C59.016800,223.420639 58.964046,242.906494 59.071430,262.391479 
	C59.081406,264.201447 59.599529,266.473785 60.754478,267.727173 
	C64.582909,271.881958 68.920876,275.561646 72.862579,279.618713 
	C81.408539,288.414673 89.830170,297.331390 98.301849,306.197937 
	C96.199104,308.435913 93.594986,311.207489 90.375099,314.240204 
	C80.827843,323.519806 71.223167,332.741852 61.796867,342.142761 
	C60.424992,343.510956 59.138897,345.723816 59.114574,347.562988 
	C58.940727,360.709534 59.104298,373.860504 59.030090,387.937988 
	C59.019505,404.402496 58.929939,420.867767 59.088158,437.330658 
	C59.110477,439.652954 59.746525,442.416473 61.108372,444.208160 
	C72.155815,458.742279 83.426376,473.107208 94.687027,487.478180 
	C95.807503,488.908142 97.314873,490.034973 99.464264,492.086792 
	C99.464264,489.202759 99.462410,487.717804 99.464539,486.232849 
	C99.496742,463.782806 99.573296,441.332733 99.542870,418.882782 
	C99.528465,408.255676 99.309662,397.628876 99.496475,386.119720 
M1190.494507,319.997772 
	C1181.999390,319.997772 1173.469482,320.493408 1165.016357,319.897400 
	C1145.818115,318.543793 1129.436768,333.784271 1129.671997,355.021057 
	C1130.188721,401.654907 1129.832153,448.298401 1129.832031,494.937958 
	C1129.832031,496.687958 1129.832031,498.437988 1129.832031,500.145111 
	C1140.769531,500.145111 1150.991577,500.145111 1161.760864,500.145111 
	C1161.760864,478.878632 1161.760864,458.003235 1161.760864,437.135315 
	C1174.572388,437.135315 1186.824829,437.135315 1199.605591,437.135315 
	C1199.605591,458.317047 1199.605591,479.210358 1199.605591,500.128326 
	C1210.514038,500.128326 1220.884644,500.128326 1231.139282,500.128326 
	C1231.332275,499.395752 1231.489624,499.077240 1231.489746,498.758698 
	C1231.511597,450.287140 1231.734009,401.814178 1231.420898,353.344727 
	C1231.307861,335.847015 1220.492798,323.229126 1204.441895,320.457001 
	C1200.224365,319.728577 1195.813354,320.120392 1190.494507,319.997772 
M906.500000,319.996002 
	C895.545227,319.996002 884.590393,319.996002 873.488037,319.996002 
	C873.488037,380.343628 873.488037,440.214386 873.488037,500.189148 
	C884.067078,500.189148 894.311646,500.189148 904.960938,500.189148 
	C904.960938,473.893341 904.960938,447.951813 904.960938,421.542847 
	C914.318970,421.542847 923.275024,421.525604 932.231018,421.547943 
	C940.374268,421.568268 942.981506,424.165192 942.989075,432.321014 
	C943.008362,453.153778 942.995667,473.986572 942.995789,494.819336 
	C942.995789,496.591736 942.995850,498.364166 942.995850,500.079041 
	C953.916138,500.079041 964.275940,500.079041 974.843689,500.079041 
	C974.843689,477.787781 974.654419,455.960693 974.922791,434.139191 
	C975.058960,423.068329 974.045959,412.739807 963.642395,405.833282 
	C971.368591,400.334381 974.714966,393.170105 974.812744,384.496704 
	C974.934875,373.665039 975.012146,362.827667 974.802551,351.998657 
	C974.451538,333.864380 960.152283,320.024048 941.999084,319.998901 
	C930.499390,319.982971 918.999695,319.995972 906.500000,319.996002 
M742.834167,352.626740 
	C742.833618,355.125122 742.829834,357.623535 742.833008,360.121918 
	C742.879578,396.930573 742.678162,433.742035 743.090210,470.546631 
	C743.268738,486.498047 754.929688,498.950653 770.814331,499.976410 
	C785.237915,500.907806 799.803711,501.015472 814.230225,500.173981 
	C832.160339,499.128143 844.156799,485.240753 844.163757,467.201447 
	C844.178467,428.725494 844.217834,390.249420 844.146912,351.773590 
	C844.114685,334.266693 829.838135,320.093567 812.328979,320.008087 
	C800.336792,319.949524 788.344055,319.994629 776.351562,319.997925 
	C757.354858,320.003143 744.084106,332.549500 742.834167,352.626740 
M1641.993164,382.500000 
	C1641.993164,421.737335 1641.993164,460.974670 1641.993164,500.141907 
	C1652.885620,500.141907 1663.094971,500.141907 1673.831543,500.141907 
	C1673.831543,473.791046 1673.831543,447.889648 1673.831543,422.021362 
	C1686.746826,422.021362 1699.115479,422.021362 1711.974609,422.021362 
	C1711.974609,448.347046 1711.974609,474.246857 1711.974609,500.215149 
	C1722.701904,500.215149 1732.924927,500.215149 1743.214844,500.215149 
	C1743.214844,439.972534 1743.214844,380.110931 1743.214844,320.330658 
	C1732.582153,320.330658 1722.331909,320.330658 1711.721680,320.330658 
	C1711.721680,343.599854 1711.721680,366.532257 1711.721680,389.585205 
	C1698.839233,389.585205 1686.329834,389.585205 1673.417480,389.585205 
	C1673.417480,366.240356 1673.417480,343.300446 1673.417480,320.299377 
	C1662.771484,320.299377 1652.537354,320.299377 1641.993164,320.299377 
	C1641.993164,340.903595 1641.993164,361.201782 1641.993164,382.500000 
M644.002991,455.500000 
	C644.002991,443.251068 644.002991,431.002136 644.002991,417.868408 
	C645.277710,419.009552 645.869873,419.493896 646.410400,420.030304 
	C656.931946,430.472565 667.318665,441.056122 678.045532,451.282867 
	C681.127991,454.221619 682.148682,457.183136 682.078308,461.285675 
	C681.856323,474.221313 681.996399,487.163177 681.996399,500.236328 
	C692.921204,500.236328 703.331299,500.236328 714.001831,500.236328 
	C714.001831,481.449615 714.062622,462.969238 713.888794,444.491028 
	C713.874512,442.979187 712.525696,441.221741 711.346619,440.020477 
	C703.062500,431.580811 694.733765,423.181458 686.256470,414.936707 
	C683.196838,411.961029 679.690002,409.445282 676.836426,407.090363 
	C689.167236,394.492188 700.302734,383.258148 711.209778,371.806519 
	C712.719604,370.221344 713.844299,367.573181 713.881897,365.395325 
	C714.120361,351.573486 714.011536,337.745514 713.988647,323.919617 
	C713.986511,322.659027 713.782898,321.398804 713.693176,320.370636 
	C702.903137,320.370636 692.506897,320.370636 681.996399,320.370636 
	C681.996399,327.403961 681.320496,334.147736 682.145935,340.702454 
	C683.585693,352.135254 679.737122,360.414551 670.904663,367.824585 
	C661.567871,375.657715 653.464722,384.961212 643.872925,394.574280 
	C643.872925,368.873871 643.872925,344.528442 643.872925,320.188965 
	C633.205139,320.188965 623.089417,320.188965 612.749512,320.188965 
	C612.749512,380.254395 612.749512,440.127167 612.749512,500.243713 
	C623.275085,500.243713 633.505188,500.243713 644.002930,500.243713 
	C644.002930,485.463867 644.002930,470.981934 644.002991,455.500000 
M1032.499878,500.537872 
	C1057.254639,500.537872 1082.009399,500.537872 1106.688721,500.537872 
	C1106.688721,489.588165 1106.688721,479.332153 1106.688721,468.588440 
	C1083.316406,468.588440 1060.253052,468.588440 1037.302002,468.588440 
	C1037.302002,452.652466 1037.302002,437.213470 1037.302002,421.270813 
	C1055.664551,421.270813 1073.729492,421.270813 1091.782593,421.270813 
	C1091.782593,410.652527 1091.782593,400.544830 1091.782593,389.974762 
	C1073.508057,389.974762 1055.444824,389.974762 1037.230469,389.974762 
	C1037.230469,377.099396 1037.230469,364.689514 1037.230469,351.775208 
	C1060.510864,351.775208 1083.567261,351.775208 1106.636230,351.775208 
	C1106.636230,340.889557 1106.636230,330.513153 1106.636230,320.216187 
	C1072.829834,320.216187 1039.389282,320.216187 1005.792908,320.216187 
	C1005.792908,380.312469 1005.792908,440.190918 1005.792908,500.537598 
	C1014.576904,500.537598 1023.038330,500.537598 1032.499878,500.537872 
M1394.836426,442.500000 
	C1394.836426,461.741425 1394.836426,480.982849 1394.836426,500.227600 
	C1429.017456,500.227600 1462.420288,500.227600 1495.769287,500.227600 
	C1495.769287,489.643280 1495.769287,479.423248 1495.769287,468.816925 
	C1472.448853,468.816925 1449.521240,468.816925 1426.432739,468.816925 
	C1426.432739,453.002960 1426.432739,437.587738 1426.432739,421.518005 
	C1444.739868,421.518005 1462.790283,421.518005 1480.767700,421.518005 
	C1480.767700,410.637848 1480.767700,400.418304 1480.767700,389.810852 
	C1462.443237,389.810852 1444.515869,389.810852 1426.490234,389.810852 
	C1426.490234,377.011047 1426.490234,364.612976 1426.490234,351.778442 
	C1449.745972,351.778442 1472.678223,351.778442 1495.798218,351.778442 
	C1495.798218,340.977631 1495.798218,330.619415 1495.798218,320.296143 
	C1462.013794,320.296143 1428.596680,320.296143 1394.836304,320.296143 
	C1394.836304,360.896973 1394.836304,401.198486 1394.836426,442.500000 
M1528.067505,493.483734 
	C1533.866577,495.748199 1539.570801,499.611908 1545.483521,499.963074 
	C1560.406372,500.849457 1575.491455,501.017853 1590.382080,499.838348 
	C1603.920044,498.766022 1613.281738,490.157501 1616.589600,477.152313 
	C1618.743774,468.683167 1618.079224,459.496948 1618.680786,450.582397 
	C1607.122803,450.582397 1596.750610,450.582397 1586.153320,450.582397 
	C1586.153320,455.168854 1585.928711,459.343109 1586.216064,463.481781 
	C1586.508667,467.698334 1584.739380,469.109894 1580.711182,469.040497 
	C1571.881470,468.888336 1563.045532,468.895081 1554.215454,469.037140 
	C1549.975586,469.105347 1548.136963,467.322113 1548.141968,463.105255 
	C1548.184326,427.608856 1548.185913,392.112305 1548.139404,356.615906 
	C1548.135010,353.311737 1549.251953,351.748932 1552.792114,351.799774 
	C1562.455811,351.938660 1572.123535,351.916107 1581.788208,351.813782 
	C1584.981323,351.779968 1586.316528,352.976166 1586.193359,356.229980 
	C1586.024658,360.683533 1586.151123,365.148254 1586.151123,370.165833 
	C1591.753784,370.165833 1596.867310,370.165833 1601.980957,370.165833 
	C1607.250854,370.165833 1612.520752,370.165833 1618.091309,370.165833 
	C1618.091309,363.406403 1618.297485,357.265320 1618.052368,351.142365 
	C1617.340942,333.379059 1603.315430,320.026154 1585.526001,319.998230 
	C1574.027100,319.980164 1562.528320,319.995483 1551.029419,319.994476 
	C1530.229980,319.992584 1516.559448,333.295837 1516.459839,354.257233 
	C1516.282349,391.585999 1516.381104,428.916260 1516.428467,466.245819 
	C1516.441650,476.650787 1519.310547,485.963959 1528.067505,493.483734 
M1291.496094,351.847076 
	C1296.244263,351.847076 1300.992554,351.847076 1306.189209,351.847076 
	C1306.189209,401.782257 1306.189209,450.990265 1306.189209,500.147339 
	C1316.867920,500.147339 1327.076538,500.147339 1337.659424,500.147339 
	C1337.659424,450.619354 1337.659424,401.534515 1337.659424,351.828247 
	C1350.246338,351.828247 1362.463989,351.828247 1374.767090,351.828247 
	C1374.767090,340.950317 1374.767090,330.697723 1374.767090,320.388336 
	C1339.020264,320.388336 1303.512817,320.388336 1268.211426,320.388336 
	C1268.211426,331.028534 1268.211426,341.270569 1268.211426,351.846985 
	C1275.889893,351.846985 1283.193481,351.846985 1291.496094,351.847076 
M1396.514404,228.546890 
	C1408.916870,228.546890 1421.319458,228.546890 1434.070679,228.546890 
	C1434.070679,244.377625 1434.070679,259.475830 1434.070679,274.742493 
	C1439.995117,274.742493 1445.554565,274.742493 1451.594604,274.742493 
	C1451.594604,246.560852 1451.594604,218.638840 1451.594604,190.503204 
	C1455.293579,190.503204 1458.504761,190.503204 1462.091064,190.503204 
	C1462.091064,218.757629 1462.091064,246.682404 1462.091064,274.639771 
	C1468.181641,274.639771 1473.887695,274.639771 1479.610840,274.639771 
	C1479.610840,227.349060 1479.610840,180.425095 1479.610840,133.303070 
	C1473.670288,133.303070 1467.961670,133.303070 1461.837280,133.303070 
	C1461.837280,147.027588 1461.837280,160.448013 1461.837280,173.764664 
	C1458.183228,173.764664 1454.965332,173.764664 1451.245117,173.764664 
	C1451.245117,159.981201 1451.245117,146.584305 1451.245117,133.223633 
	C1445.289673,133.223633 1439.848145,133.223633 1433.921875,133.223633 
	C1433.921875,159.687622 1433.921875,185.927094 1433.921875,212.006470 
	C1419.208618,212.006470 1404.991089,212.006470 1390.869385,212.006470 
	C1390.869385,192.821472 1390.869385,174.082733 1390.869385,154.898331 
	C1401.606323,154.898331 1412.025513,154.898331 1422.517090,154.898331 
	C1422.517090,149.385880 1422.517090,144.331024 1422.517090,139.239059 
	C1405.761597,139.239059 1389.335205,139.239059 1373.000244,139.239059 
	C1372.779175,139.781723 1372.549194,140.083099 1372.548706,140.384842 
	C1372.507324,165.877533 1372.401123,191.370636 1372.515503,216.862732 
	C1372.544800,223.370041 1377.621704,228.065933 1384.526978,228.490311 
	C1388.179321,228.714767 1391.856079,228.540741 1396.514404,228.546890 
M816.449341,162.509491 
	C816.449341,171.086578 816.449341,179.663666 816.449341,188.640961 
	C787.457825,188.640961 759.354797,188.640961 731.277832,188.640961 
	C731.277832,194.005402 731.277832,198.935394 731.277832,204.304398 
	C748.477417,204.304398 765.395935,204.304398 782.472290,204.304398 
	C782.472290,210.798660 782.472290,216.844467 782.472290,223.418640 
	C770.881531,223.418640 759.635925,223.418640 748.575867,223.418640 
	C748.575867,228.861328 748.575867,233.759033 748.575867,238.995148 
	C771.442993,238.995148 793.887390,238.995148 816.923096,238.995148 
	C816.923096,251.398590 816.923096,263.451874 816.923096,275.484863 
	C823.073425,275.484863 828.621399,275.484863 834.550781,275.484863 
	C834.550781,262.654572 834.559021,250.180084 834.548157,237.705582 
	C834.539551,227.751144 829.907471,223.177551 819.821777,223.155060 
	C813.564758,223.141113 807.307678,223.152481 801.125000,223.152481 
	C801.125000,216.490540 801.125000,210.561951 801.125000,204.039673 
	C818.442017,204.039673 835.488098,204.039673 852.467957,204.039673 
	C852.467957,198.554962 852.467957,193.676117 852.467957,188.386749 
	C846.313049,188.386749 840.528931,188.386749 834.176453,188.386749 
	C834.176453,186.357635 834.176514,184.734833 834.176453,183.112030 
	C834.176208,172.279816 834.179199,161.447586 834.174561,150.615372 
	C834.170227,140.360046 829.892761,136.004623 819.736145,135.996704 
	C797.238464,135.979187 774.740784,135.986801 752.243103,136.001923 
	C750.810547,136.002884 749.378113,136.155975 748.162354,136.225845 
	C748.162354,141.635605 748.162354,146.560959 748.162354,152.006012 
	C771.068176,152.006012 793.641052,152.006012 816.449585,152.006012 
	C816.449585,155.532135 816.449585,158.523148 816.449341,162.509491 
M1092.453247,189.460876 
	C1054.545410,189.460876 1016.637451,189.460876 978.729248,189.460876 
	C978.729248,195.089218 978.729248,199.868668 978.729248,205.066177 
	C996.586792,205.066177 1014.182739,205.066177 1031.916260,205.066177 
	C1031.916260,207.898193 1031.916260,210.304855 1031.916260,213.324921 
	C1020.810425,213.324921 1009.933960,213.324921 999.180725,213.324921 
	C999.180725,218.358322 999.180725,222.767578 999.180725,227.635315 
	C1021.118408,227.635315 1042.713867,227.635315 1064.567627,227.635315 
	C1064.567627,230.840012 1064.567627,233.575714 1064.567627,236.882889 
	C1042.599976,236.882889 1020.879639,236.882889 999.326965,236.882889 
	C999.067383,237.756042 998.898682,238.061111 998.897156,238.367020 
	C998.864868,245.032364 998.836914,251.697800 998.837341,258.363220 
	C998.837952,268.513458 1003.256653,272.989410 1013.338745,272.996735 
	C1036.003662,273.013214 1058.668457,273.001434 1081.333374,273.001190 
	C1082.776245,273.001160 1084.219116,273.001190 1085.681152,273.001190 
	C1085.681152,267.915222 1085.681152,263.362854 1085.681152,258.454895 
	C1063.419312,258.454895 1041.475098,258.454895 1019.267944,258.454895 
	C1019.267944,255.526642 1019.267944,252.962265 1019.267944,249.926361 
	C1040.541992,249.926361 1061.609863,249.926361 1082.597656,249.926361 
	C1082.597656,237.414978 1082.597656,225.376480 1082.597656,212.999756 
	C1071.593628,212.999756 1060.991211,212.999756 1050.224854,212.999756 
	C1050.224854,210.239273 1050.224854,207.829468 1050.224854,204.852417 
	C1068.153076,204.852417 1085.867310,204.852417 1103.572266,204.852417 
	C1103.572266,199.520630 1103.572266,194.763046 1103.572266,189.461243 
	C1100.022095,189.461243 1096.727173,189.461243 1092.453247,189.460876 
M1328.500000,195.827072 
	C1298.410889,195.827072 1268.321777,195.827072 1238.074097,195.827072 
	C1238.074097,201.114944 1238.074097,205.849762 1238.074097,211.005554 
	C1249.390747,211.005554 1260.470825,211.005554 1271.623413,211.005554 
	C1271.623413,215.966537 1271.623413,220.496048 1271.623413,225.441742 
	C1266.327881,225.441742 1261.404541,225.441742 1256.534424,225.441742 
	C1256.534424,230.771561 1256.534424,235.662308 1256.534424,241.014221 
	C1279.319946,241.014221 1301.731323,241.014221 1324.733643,241.014221 
	C1324.733643,252.862793 1324.733643,264.248291 1324.733643,275.592163 
	C1330.777344,275.592163 1336.218628,275.592163 1342.173462,275.592163 
	C1342.173462,263.236389 1342.181274,251.124191 1342.170898,239.011993 
	C1342.163574,230.494476 1337.787598,225.804581 1329.283447,225.172089 
	C1327.837402,225.064529 1326.389282,224.986450 1324.830078,224.887650 
	C1324.830078,220.174484 1324.830078,215.782547 1324.830078,210.878021 
	C1336.332397,210.878021 1347.562500,210.878021 1358.707275,210.878021 
	C1358.707275,205.606796 1358.707275,200.856827 1358.707275,195.827042 
	C1348.774292,195.827042 1339.137085,195.827042 1328.500000,195.827072 
M607.091736,190.142227 
	C612.853577,205.307938 625.003540,213.073456 641.272034,211.988113 
	C660.117126,210.730881 673.888794,192.444962 668.771179,174.724670 
	C667.274597,169.542816 663.760620,164.943604 661.092773,159.929657 
	C665.858948,159.929657 670.954102,159.929657 676.204407,159.929657 
	C676.204407,154.687866 676.204407,149.795273 676.204407,144.371735 
	C666.463074,144.371735 657.051025,144.371735 647.137390,144.371735 
	C647.137390,139.440964 647.137390,135.022186 647.137390,130.523361 
	C640.899292,130.523361 635.187561,130.523361 629.000366,130.523361 
	C629.000366,135.304245 629.000366,139.727417 629.000366,144.609039 
	C619.096375,144.609039 609.670410,144.609039 600.332886,144.609039 
	C600.332886,149.997940 600.332886,154.905807 600.332886,160.211334 
	C605.548889,160.211334 610.433594,160.211334 615.960999,160.211334 
	C607.590759,168.757248 604.107971,178.125076 607.091736,190.142227 
M1200.504639,234.834534 
	C1195.711548,234.834534 1190.918335,234.834534 1185.525879,234.834534 
	C1185.525879,219.285690 1185.525879,204.224426 1185.525879,189.139496 
	C1179.334351,189.139496 1173.755249,189.139496 1167.612549,189.139496 
	C1167.612549,204.488525 1167.612549,219.538437 1167.612549,234.546967 
	C1162.776611,234.546967 1158.513184,234.546967 1153.693848,234.546967 
	C1153.693848,219.207764 1153.693848,204.146194 1153.693848,189.111694 
	C1147.537109,189.111694 1141.947266,189.111694 1135.838867,189.111694 
	C1135.838867,204.435837 1135.838867,219.491196 1135.838867,235.015549 
	C1126.582153,235.015549 1117.842407,235.015549 1109.186035,235.015549 
	C1109.186035,240.397003 1109.186035,245.288437 1109.186035,250.222931 
	C1149.607178,250.222931 1189.674805,250.222931 1229.708008,250.222931 
	C1229.708008,244.976593 1229.708008,240.049850 1229.708008,234.834503 
	C1220.112671,234.834503 1210.808105,234.834503 1200.504639,234.834534 
M1543.003052,135.618118 
	C1543.003052,133.873245 1543.003052,132.128372 1543.003052,130.407257 
	C1536.646729,130.407257 1531.052856,130.407257 1524.867798,130.407257 
	C1524.867798,135.182755 1524.867798,139.723007 1524.867798,144.747238 
	C1514.880737,144.747238 1505.487427,144.747238 1496.053467,144.747238 
	C1496.053467,150.018799 1496.053467,154.783203 1496.053467,160.185089 
	C1501.228638,160.185089 1506.202271,160.185089 1511.778564,160.185089 
	C1497.773315,174.143112 1499.825562,191.652863 1510.070068,202.410690 
	C1521.386475,214.294067 1541.925537,215.365753 1554.665039,204.818100 
	C1568.344849,193.491867 1569.014648,177.733246 1556.112183,159.856522 
	C1561.701782,159.856522 1566.882324,159.856522 1571.904297,159.856522 
	C1571.904297,154.471329 1571.904297,149.697678 1571.904297,144.444153 
	C1562.242676,144.444153 1552.836914,144.444153 1543.002930,144.444153 
	C1543.002930,141.500748 1543.002930,139.037277 1543.003052,135.618118 
M1640.500244,250.468918 
	C1674.583740,250.468918 1708.667236,250.468918 1742.854126,250.468918 
	C1742.854126,244.951035 1742.854126,240.057297 1742.854126,234.731415 
	C1728.130249,234.731415 1713.711304,234.731415 1698.733887,234.731415 
	C1698.733887,219.242813 1698.733887,204.180237 1698.733887,189.095657 
	C1692.571167,189.095657 1686.980469,189.095657 1680.873169,189.095657 
	C1680.873169,204.405716 1680.873169,219.463928 1680.873169,234.460602 
	C1675.955200,234.460602 1671.566895,234.460602 1666.860596,234.460602 
	C1666.860596,219.143921 1666.860596,204.199280 1666.860596,189.112366 
	C1660.804199,189.112366 1655.084106,189.112366 1648.842041,189.112366 
	C1648.842041,204.437439 1648.842041,219.493896 1648.842041,235.017120 
	C1639.585571,235.017120 1630.845337,235.017120 1622.182861,235.017120 
	C1622.182861,240.417419 1622.182861,245.330658 1622.182861,250.469177 
	C1628.187378,250.469177 1633.843994,250.469177 1640.500244,250.468918 
M1669.500000,138.997101 
	C1658.411621,138.997101 1647.323242,138.997101 1636.252563,138.997101 
	C1636.252563,144.545319 1636.252563,149.468491 1636.252563,154.885376 
	C1660.878174,154.885376 1685.252930,154.885376 1710.034180,154.885376 
	C1710.034180,177.448746 1710.034180,199.515930 1710.034180,221.736115 
	C1716.005981,221.736115 1721.561768,221.736115 1727.537842,221.736115 
	C1727.537842,220.010818 1727.537964,218.537811 1727.537964,217.064789 
	C1727.538330,195.749390 1727.550659,174.433975 1727.533325,153.118591 
	C1727.525635,143.719101 1722.861328,139.028137 1713.463867,139.005630 
	C1699.142578,138.971329 1684.821289,138.996933 1669.500000,138.997101 
M918.818176,141.322006 
	C916.872559,140.934082 914.932190,140.245911 912.980347,140.211472 
	C905.486572,140.079239 897.989075,140.156265 890.492981,140.155945 
	C881.214233,140.155548 871.935425,140.155853 862.491943,140.155853 
	C862.491943,145.765594 862.491943,150.817551 862.491943,156.400116 
	C877.719910,156.400116 892.621338,156.400116 907.829529,156.400116 
	C907.829529,164.409241 908.060242,171.896408 907.693909,179.354233 
	C907.578674,181.699936 906.411255,184.498108 904.785889,186.182800 
	C894.956421,196.371063 884.903564,206.346405 874.816528,216.282333 
	C871.401855,219.645889 867.669922,222.687317 864.493774,225.510803 
	C869.205078,230.330948 872.973511,234.186478 875.273254,236.539307 
	C891.303345,221.354034 907.475647,206.227448 923.318787,190.763626 
	C925.150574,188.975739 925.797729,185.334259 925.886902,182.517151 
	C926.192200,172.865173 925.800171,163.191605 926.083435,153.538269 
	C926.244141,148.061050 924.215149,144.246826 918.818176,141.322006 
M1264.952759,154.521088 
	C1264.829468,157.007538 1264.398804,159.523117 1264.631470,161.975830 
	C1266.503540,181.721603 1285.950806,195.044113 1306.044312,190.447266 
	C1324.099609,186.316711 1335.286255,169.680466 1331.300903,152.886795 
	C1327.817627,138.209122 1314.513916,128.023743 1298.596680,127.848526 
	C1282.225830,127.668304 1269.420654,137.524551 1264.952759,154.521088 
M1196.997437,179.500000 
	C1196.997437,193.586334 1196.997437,207.672684 1196.997437,221.715515 
	C1203.036743,221.715515 1208.451660,221.715515 1214.169800,221.715515 
	C1214.169800,219.628784 1214.169922,217.821518 1214.169922,216.014236 
	C1214.169922,195.196365 1214.171021,174.378510 1214.169189,153.560638 
	C1214.168335,143.284470 1209.960693,139.010437 1199.746338,139.002609 
	C1176.430298,138.984726 1153.114380,138.997040 1129.798340,138.997086 
	C1127.677124,138.997101 1125.555908,138.997086 1123.337402,138.997086 
	C1123.337402,144.469376 1123.337402,149.505615 1123.337402,155.052017 
	C1148.042969,155.052017 1172.412231,155.052017 1196.997437,155.052017 
	C1196.997437,163.210663 1196.997437,170.855347 1196.997437,179.500000 
M946.837097,181.499969 
	C946.837097,212.576126 946.837097,243.652283 946.837097,274.703033 
	C953.243958,274.703033 958.983398,274.703033 964.686890,274.703033 
	C964.686890,227.353287 964.686890,180.300781 964.686890,133.294998 
	C958.620117,133.294998 952.871216,133.294998 946.837097,133.294998 
	C946.837097,149.225525 946.837097,164.862747 946.837097,181.499969 
M723.000732,178.664703 
	C722.898743,177.239014 722.796753,175.813309 722.664490,173.964478 
	C716.694214,173.964478 711.111023,173.964478 705.104370,173.964478 
	C705.104370,160.100769 705.104370,146.687515 705.104370,133.088989 
	C699.084045,133.088989 693.511414,133.088989 687.768433,133.088989 
	C687.768433,167.237366 687.768433,201.131027 687.768433,235.252289 
	C693.652039,235.252289 699.228516,235.252289 705.322937,235.252289 
	C705.322937,220.066406 705.322937,205.155930 705.322937,189.882019 
	C711.437683,189.882019 717.039368,189.882019 723.000549,189.882019 
	C723.000549,186.213730 723.000549,182.918991 723.000732,178.664703 
M1070.165039,155.382538 
	C1066.599243,153.247238 1063.198608,150.742722 1059.431885,149.056396 
	C1052.399170,145.908066 1048.118774,141.470337 1049.958618,133.164795 
	C1050.078857,132.622864 1049.689453,131.968018 1049.563843,131.471542 
	C1043.711670,131.471542 1038.136353,131.471542 1032.154663,131.471542 
	C1032.154663,133.412567 1031.925903,135.086395 1032.196655,136.675140 
	C1033.079712,141.857010 1030.707153,144.608505 1026.261841,147.125793 
	C1013.704651,154.236557 1001.461365,161.901535 988.927002,169.448898 
	C991.198303,173.835541 993.313782,177.921173 995.556580,182.252808 
	C1007.159790,175.707657 1018.916016,170.053986 1029.553467,162.767181 
	C1038.108276,156.907120 1044.745117,157.429993 1053.080933,162.971848 
	C1063.776489,170.082596 1075.390137,175.812714 1086.827637,182.261368 
	C1089.133789,177.734802 1091.206299,173.666855 1093.395264,169.370514 
	C1085.563965,164.674744 1078.164062,160.237732 1070.165039,155.382538 
M1598.184326,262.491241 
	C1598.183838,254.659088 1598.199585,246.826889 1598.178223,238.994797 
	C1598.156860,231.140121 1593.644165,226.049973 1585.651367,225.976624 
	C1563.662476,225.774765 1541.670288,225.927979 1519.679321,225.963440 
	C1519.405640,225.963882 1519.132446,226.264023 1518.791504,226.463852 
	C1518.791504,231.338745 1518.791504,236.237305 1518.791504,241.628571 
	C1539.387817,241.628571 1559.636108,241.628571 1580.426025,241.628571 
	C1580.426025,253.193298 1580.426025,264.273071 1580.426025,275.596771 
	C1586.542114,275.596771 1592.107422,275.596771 1598.184326,275.596771 
	C1598.184326,271.399414 1598.184326,267.443512 1598.184326,262.491241 
M696.470581,273.010223 
	C699.877197,273.010223 703.283813,273.010223 706.483521,273.010223 
	C706.483521,267.278961 706.483521,262.370300 706.483521,256.919250 
	C684.748291,256.919250 663.376404,256.919250 641.625549,256.919250 
	C641.625549,247.104843 641.625549,237.844040 641.625549,228.473129 
	C635.339539,228.473129 629.450073,228.473129 623.150940,228.473129 
	C623.150940,238.751007 623.144104,248.708954 623.152893,258.666901 
	C623.161438,268.344757 627.797607,272.992859 637.532715,273.004059 
	C656.847656,273.026245 676.162659,273.010376 696.470581,273.010223 
M1598.181152,208.477295 
	C1598.181152,200.039764 1598.181152,191.602234 1598.181152,182.779907 
	C1605.091797,182.779907 1611.364746,182.779907 1617.859619,182.779907 
	C1617.859619,177.345932 1617.859619,172.315826 1617.859619,166.750549 
	C1611.156128,166.750549 1604.761230,166.750549 1598.055542,166.750549 
	C1598.055542,155.285660 1598.055542,144.355530 1598.055542,133.209854 
	C1592.124634,133.209854 1586.539307,133.209854 1580.857178,133.209854 
	C1580.857178,161.566055 1580.857178,189.738678 1580.857178,217.805237 
	C1586.851562,217.805237 1592.419067,217.805237 1598.181152,217.805237 
	C1598.181152,214.777603 1598.181152,212.124466 1598.181152,208.477295 
z"/>
<path fill="#F6A802" opacity="1.000000" stroke="none" 
	d="
M300.164581,254.004883 
	C300.107819,246.013000 300.003601,238.021118 300.001892,230.029221 
	C299.989594,171.893494 299.997894,113.757774 299.999664,55.622047 
	C299.999725,53.658875 299.999664,51.695702 299.999664,49.446144 
	C366.977875,49.446144 433.529907,49.446144 500.463898,49.446144 
	C500.463898,62.557095 500.463898,75.627426 500.463898,89.323761 
	C447.377045,89.323761 394.176178,89.323761 340.131714,89.323761 
	C340.131714,143.988358 340.131714,198.034256 339.575806,252.540482 
	C326.068115,253.335495 313.116364,253.670181 300.164581,254.004883 
z"/>
<path fill="#0F538A" opacity="1.000000" stroke="none" 
	d="
M1190.992920,319.997772 
	C1195.813354,320.120392 1200.224365,319.728577 1204.441895,320.457001 
	C1220.492798,323.229126 1231.307861,335.847015 1231.420898,353.344727 
	C1231.734009,401.814178 1231.511597,450.287140 1231.489746,498.758698 
	C1231.489624,499.077240 1231.332275,499.395752 1231.139282,500.128326 
	C1220.884644,500.128326 1210.514038,500.128326 1199.605591,500.128326 
	C1199.605591,479.210358 1199.605591,458.317047 1199.605591,437.135315 
	C1186.824829,437.135315 1174.572388,437.135315 1161.760864,437.135315 
	C1161.760864,458.003235 1161.760864,478.878632 1161.760864,500.145111 
	C1150.991577,500.145111 1140.769531,500.145111 1129.832031,500.145111 
	C1129.832031,498.437988 1129.832031,496.687958 1129.832031,494.937958 
	C1129.832153,448.298401 1130.188721,401.654907 1129.671997,355.021057 
	C1129.436768,333.784271 1145.818115,318.543793 1165.016357,319.897400 
	C1173.469482,320.493408 1181.999390,319.997772 1190.992920,319.997772 
M1179.501465,351.838165 
	C1175.502197,351.838531 1171.484741,352.078796 1167.508667,351.775665 
	C1163.010010,351.432709 1161.343872,352.892426 1161.439331,357.651489 
	C1161.726074,371.976379 1161.532593,386.310699 1161.557373,400.641266 
	C1161.559814,402.058563 1161.773804,403.475494 1161.887085,404.861938 
	C1174.567993,404.861938 1186.824219,404.861938 1199.452026,404.861938 
	C1199.452026,388.268799 1199.433716,371.969696 1199.469604,355.670685 
	C1199.475708,352.897003 1198.185791,351.793152 1195.496948,351.827362 
	C1190.498779,351.890991 1185.499023,351.840881 1179.501465,351.838165 
z"/>
<path fill="#10548A" opacity="1.000000" stroke="none" 
	d="
M907.000000,319.996002 
	C918.999695,319.995972 930.499390,319.982971 941.999084,319.998901 
	C960.152283,320.024048 974.451538,333.864380 974.802551,351.998657 
	C975.012146,362.827667 974.934875,373.665039 974.812744,384.496704 
	C974.714966,393.170105 971.368591,400.334381 963.642395,405.833282 
	C974.045959,412.739807 975.058960,423.068329 974.922791,434.139191 
	C974.654419,455.960693 974.843689,477.787781 974.843689,500.079041 
	C964.275940,500.079041 953.916138,500.079041 942.995850,500.079041 
	C942.995850,498.364166 942.995789,496.591736 942.995789,494.819336 
	C942.995667,473.986572 943.008362,453.153778 942.989075,432.321014 
	C942.981506,424.165192 940.374268,421.568268 932.231018,421.547943 
	C923.275024,421.525604 914.318970,421.542847 904.960938,421.542847 
	C904.960938,447.951813 904.960938,473.893341 904.960938,500.189148 
	C894.311646,500.189148 884.067078,500.189148 873.488037,500.189148 
	C873.488037,440.214386 873.488037,380.343628 873.488037,319.996002 
	C884.590393,319.996002 895.545227,319.996002 907.000000,319.996002 
M904.843750,356.584015 
	C904.843750,367.656281 904.843750,378.728546 904.843750,389.953766 
	C914.726440,389.953766 923.877075,390.110626 933.019226,389.900391 
	C939.459900,389.752319 942.779663,386.542633 942.929016,380.432068 
	C943.128418,372.274414 942.967346,364.108246 943.000671,355.945923 
	C943.012573,353.018768 941.675232,351.788483 938.719727,351.811737 
	C928.558777,351.891754 918.394775,351.957855 908.236633,351.770508 
	C905.140564,351.713409 904.502869,353.023254 904.843750,356.584015 
z"/>
<path fill="#F6AB02" opacity="1.000000" stroke="none" 
	d="
M220.048737,216.002319 
	C219.977570,201.516693 219.863098,187.031128 219.844757,172.545425 
	C219.812286,146.893570 219.838272,121.241631 219.839783,95.589722 
	C219.839890,93.797310 219.839798,92.004898 219.839798,89.706055 
	C166.099945,89.706055 112.881004,89.706055 59.330643,89.706055 
	C59.330643,76.005920 59.330643,62.815178 59.330643,49.387024 
	C126.111572,49.387024 192.676651,49.387024 259.979614,49.387024 
	C259.979614,104.978889 259.979614,160.527756 259.489105,216.540833 
	C254.549057,217.336685 250.081879,218.093216 245.653763,217.909271 
	C237.107101,217.554230 228.582489,216.668213 220.048737,216.002319 
z"/>
<path fill="#0F538A" opacity="1.000000" stroke="none" 
	d="
M742.839844,352.148590 
	C744.084106,332.549500 757.354858,320.003143 776.351562,319.997925 
	C788.344055,319.994629 800.336792,319.949524 812.328979,320.008087 
	C829.838135,320.093567 844.114685,334.266693 844.146912,351.773590 
	C844.217834,390.249420 844.178467,428.725494 844.163757,467.201447 
	C844.156799,485.240753 832.160339,499.128143 814.230225,500.173981 
	C799.803711,501.015472 785.237915,500.907806 770.814331,499.976410 
	C754.929688,498.950653 743.268738,486.498047 743.090210,470.546631 
	C742.678162,433.742035 742.879578,396.930573 742.833008,360.121918 
	C742.829834,357.623535 742.833618,355.125122 742.839844,352.148590 
M812.461853,359.572510 
	C812.459229,351.836029 812.459229,351.834717 804.920715,351.833160 
	C797.091431,351.831543 789.262207,351.830017 781.432922,351.833679 
	C774.343201,351.836975 774.170044,351.995850 774.168396,359.136566 
	C774.161072,390.620209 774.165039,422.103821 774.164978,453.587463 
	C774.164917,456.419312 774.120728,459.252045 774.174561,462.082855 
	C774.280945,467.679535 775.415833,468.816650 780.905579,468.831696 
	C788.734741,468.853119 796.564087,468.837708 804.393311,468.837036 
	C812.459534,468.836334 812.461670,468.835815 812.461853,461.000977 
	C812.462524,427.518402 812.461792,394.035797 812.461853,359.572510 
z"/>
<path fill="#F39A05" opacity="1.000000" stroke="none" 
	d="
M1641.993164,382.000000 
	C1641.993164,361.201782 1641.993164,340.903595 1641.993164,320.299377 
	C1652.537354,320.299377 1662.771484,320.299377 1673.417480,320.299377 
	C1673.417480,343.300446 1673.417480,366.240356 1673.417480,389.585205 
	C1686.329834,389.585205 1698.839233,389.585205 1711.721680,389.585205 
	C1711.721680,366.532257 1711.721680,343.599854 1711.721680,320.330658 
	C1722.331909,320.330658 1732.582153,320.330658 1743.214844,320.330658 
	C1743.214844,380.110931 1743.214844,439.972534 1743.214844,500.215149 
	C1732.924927,500.215149 1722.701904,500.215149 1711.974609,500.215149 
	C1711.974609,474.246857 1711.974609,448.347046 1711.974609,422.021362 
	C1699.115479,422.021362 1686.746826,422.021362 1673.831543,422.021362 
	C1673.831543,447.889648 1673.831543,473.791046 1673.831543,500.141907 
	C1663.094971,500.141907 1652.885620,500.141907 1641.993164,500.141907 
	C1641.993164,460.974670 1641.993164,421.737335 1641.993164,382.000000 
z"/>
<path fill="#0F548A" opacity="1.000000" stroke="none" 
	d="
M644.002930,456.000000 
	C644.002930,470.981934 644.002930,485.463867 644.002930,500.243713 
	C633.505188,500.243713 623.275085,500.243713 612.749512,500.243713 
	C612.749512,440.127167 612.749512,380.254395 612.749512,320.188965 
	C623.089417,320.188965 633.205139,320.188965 643.872925,320.188965 
	C643.872925,344.528442 643.872925,368.873871 643.872925,394.574280 
	C653.464722,384.961212 661.567871,375.657715 670.904663,367.824585 
	C679.737122,360.414551 683.585693,352.135254 682.145935,340.702454 
	C681.320496,334.147736 681.996399,327.403961 681.996399,320.370636 
	C692.506897,320.370636 702.903137,320.370636 713.693176,320.370636 
	C713.782898,321.398804 713.986511,322.659027 713.988647,323.919617 
	C714.011536,337.745514 714.120361,351.573486 713.881897,365.395325 
	C713.844299,367.573181 712.719604,370.221344 711.209778,371.806519 
	C700.302734,383.258148 689.167236,394.492188 676.836426,407.090363 
	C679.690002,409.445282 683.196838,411.961029 686.256470,414.936707 
	C694.733765,423.181458 703.062500,431.580811 711.346619,440.020477 
	C712.525696,441.221741 713.874512,442.979187 713.888794,444.491028 
	C714.062622,462.969238 714.001831,481.449615 714.001831,500.236328 
	C703.331299,500.236328 692.921204,500.236328 681.996399,500.236328 
	C681.996399,487.163177 681.856323,474.221313 682.078308,461.285675 
	C682.148682,457.183136 681.127991,454.221619 678.045532,451.282867 
	C667.318665,441.056122 656.931946,430.472565 646.410400,420.030304 
	C645.869873,419.493896 645.277710,419.009552 644.002991,417.868408 
	C644.002991,431.002136 644.002991,443.251068 644.002930,456.000000 
z"/>
<path fill="#0E5389" opacity="1.000000" stroke="none" 
	d="
M1031.999756,500.537720 
	C1023.038330,500.537598 1014.576904,500.537598 1005.792908,500.537598 
	C1005.792908,440.190918 1005.792908,380.312469 1005.792908,320.216187 
	C1039.389282,320.216187 1072.829834,320.216187 1106.636230,320.216187 
	C1106.636230,330.513153 1106.636230,340.889557 1106.636230,351.775208 
	C1083.567261,351.775208 1060.510864,351.775208 1037.230469,351.775208 
	C1037.230469,364.689514 1037.230469,377.099396 1037.230469,389.974762 
	C1055.444824,389.974762 1073.508057,389.974762 1091.782593,389.974762 
	C1091.782593,400.544830 1091.782593,410.652527 1091.782593,421.270813 
	C1073.729492,421.270813 1055.664551,421.270813 1037.302002,421.270813 
	C1037.302002,437.213470 1037.302002,452.652466 1037.302002,468.588440 
	C1060.253052,468.588440 1083.316406,468.588440 1106.688721,468.588440 
	C1106.688721,479.332153 1106.688721,489.588165 1106.688721,500.537872 
	C1082.009399,500.537872 1057.254639,500.537872 1031.999756,500.537720 
z"/>
<path fill="#F39903" opacity="1.000000" stroke="none" 
	d="
M1394.836426,442.000000 
	C1394.836304,401.198486 1394.836304,360.896973 1394.836304,320.296143 
	C1428.596680,320.296143 1462.013794,320.296143 1495.798218,320.296143 
	C1495.798218,330.619415 1495.798218,340.977631 1495.798218,351.778442 
	C1472.678223,351.778442 1449.745972,351.778442 1426.490234,351.778442 
	C1426.490234,364.612976 1426.490234,377.011047 1426.490234,389.810852 
	C1444.515869,389.810852 1462.443237,389.810852 1480.767700,389.810852 
	C1480.767700,400.418304 1480.767700,410.637848 1480.767700,421.518005 
	C1462.790283,421.518005 1444.739868,421.518005 1426.432739,421.518005 
	C1426.432739,437.587738 1426.432739,453.002960 1426.432739,468.816925 
	C1449.521240,468.816925 1472.448853,468.816925 1495.769287,468.816925 
	C1495.769287,479.423248 1495.769287,489.643280 1495.769287,500.227600 
	C1462.420288,500.227600 1429.017456,500.227600 1394.836426,500.227600 
	C1394.836426,480.982849 1394.836426,461.741425 1394.836426,442.000000 
z"/>
<path fill="#F39904" opacity="1.000000" stroke="none" 
	d="
M1527.793335,493.251221 
	C1519.310547,485.963959 1516.441650,476.650787 1516.428467,466.245819 
	C1516.381104,428.916260 1516.282349,391.585999 1516.459839,354.257233 
	C1516.559448,333.295837 1530.229980,319.992584 1551.029419,319.994476 
	C1562.528320,319.995483 1574.027100,319.980164 1585.526001,319.998230 
	C1603.315430,320.026154 1617.340942,333.379059 1618.052368,351.142365 
	C1618.297485,357.265320 1618.091309,363.406403 1618.091309,370.165833 
	C1612.520752,370.165833 1607.250854,370.165833 1601.980957,370.165833 
	C1596.867310,370.165833 1591.753784,370.165833 1586.151123,370.165833 
	C1586.151123,365.148254 1586.024658,360.683533 1586.193359,356.229980 
	C1586.316528,352.976166 1584.981323,351.779968 1581.788208,351.813782 
	C1572.123535,351.916107 1562.455811,351.938660 1552.792114,351.799774 
	C1549.251953,351.748932 1548.135010,353.311737 1548.139404,356.615906 
	C1548.185913,392.112305 1548.184326,427.608856 1548.141968,463.105255 
	C1548.136963,467.322113 1549.975586,469.105347 1554.215454,469.037140 
	C1563.045532,468.895081 1571.881470,468.888336 1580.711182,469.040497 
	C1584.739380,469.109894 1586.508667,467.698334 1586.216064,463.481781 
	C1585.928711,459.343109 1586.153320,455.168854 1586.153320,450.582397 
	C1596.750610,450.582397 1607.122803,450.582397 1618.680786,450.582397 
	C1618.079224,459.496948 1618.743774,468.683167 1616.589600,477.152313 
	C1613.281738,490.157501 1603.920044,498.766022 1590.382080,499.838348 
	C1575.491455,501.017853 1560.406372,500.849457 1545.483521,499.963074 
	C1539.570801,499.611908 1533.866577,495.748199 1527.793335,493.251221 
z"/>
<path fill="#F49D01" opacity="1.000000" stroke="none" 
	d="
M219.964172,216.464340 
	C228.582489,216.668213 237.107101,217.554230 245.653763,217.909271 
	C250.081879,218.093216 254.549057,217.336685 259.416626,217.004761 
	C259.882904,256.694214 259.931122,296.383942 259.451019,336.537109 
	C230.826416,336.624878 202.730148,336.249207 174.633881,335.873535 
	C184.629883,325.876434 194.625900,315.879395 204.257538,306.246765 
	C195.459503,297.107880 186.958221,288.022766 178.176743,279.217072 
	C165.942993,266.949524 153.461838,254.928833 141.208725,242.680298 
	C140.076218,241.548203 139.351639,239.563644 139.254456,237.926437 
	C138.998199,233.609955 139.191772,229.266785 139.738312,224.472046 
	C153.451401,224.009354 166.632385,224.008835 179.813385,224.008316 
	C192.406128,237.221573 204.998871,250.434830 217.591614,263.648071 
	C218.354279,263.177155 219.116928,262.706238 219.879593,262.235321 
	C219.879593,247.132324 219.879593,232.029343 219.964172,216.464340 
z"/>
<path fill="#F39701" opacity="1.000000" stroke="none" 
	d="
M300.097015,254.468903 
	C313.116364,253.670181 326.068115,253.335495 339.485138,253.001877 
	C339.950378,255.931076 339.950378,258.859192 339.950378,263.381348 
	C344.054321,259.395905 347.214569,256.326904 351.091736,253.180710 
	C354.410461,253.395035 357.017365,253.974869 359.613129,253.928848 
	C371.651672,253.715363 383.687531,253.121613 395.723389,253.146011 
	C398.802734,253.152252 401.878510,254.916656 404.955933,255.873322 
	C393.882874,266.557190 382.786621,277.217163 371.746857,287.935303 
	C366.500732,293.028595 361.290680,298.165100 356.270691,303.477112 
	C355.680481,304.101624 355.890198,306.483215 356.592682,307.181488 
	C373.208008,323.697052 389.941925,340.093353 406.504578,357.086060 
	C399.286041,358.107544 392.222107,358.796875 385.146851,358.945343 
	C374.042603,359.178436 362.930695,359.046570 351.822052,359.069275 
	C348.237885,355.741058 344.653717,352.412872 340.128845,348.211151 
	C340.128845,353.307343 340.128845,357.200134 339.636963,361.547729 
	C326.152802,362.336548 313.160522,362.670624 300.168274,363.004700 
	C300.122009,326.980774 300.075714,290.956848 300.097015,254.468903 
z"/>
<path fill="#F39904" opacity="1.000000" stroke="none" 
	d="
M1290.996582,351.847046 
	C1283.193481,351.846985 1275.889893,351.846985 1268.211426,351.846985 
	C1268.211426,341.270569 1268.211426,331.028534 1268.211426,320.388336 
	C1303.512817,320.388336 1339.020264,320.388336 1374.767090,320.388336 
	C1374.767090,330.697723 1374.767090,340.950317 1374.767090,351.828247 
	C1362.463989,351.828247 1350.246338,351.828247 1337.659424,351.828247 
	C1337.659424,401.534515 1337.659424,450.619354 1337.659424,500.147339 
	C1327.076538,500.147339 1316.867920,500.147339 1306.189209,500.147339 
	C1306.189209,450.990265 1306.189209,401.782257 1306.189209,351.847076 
	C1300.992554,351.847076 1296.244263,351.847076 1290.996582,351.847046 
z"/>
<path fill="#10548B" opacity="1.000000" stroke="none" 
	d="
M1396.018066,228.546753 
	C1391.856079,228.540741 1388.179321,228.714767 1384.526978,228.490311 
	C1377.621704,228.065933 1372.544800,223.370041 1372.515503,216.862732 
	C1372.401123,191.370636 1372.507324,165.877533 1372.548706,140.384842 
	C1372.549194,140.083099 1372.779175,139.781723 1373.000244,139.239059 
	C1389.335205,139.239059 1405.761597,139.239059 1422.517090,139.239059 
	C1422.517090,144.331024 1422.517090,149.385880 1422.517090,154.898331 
	C1412.025513,154.898331 1401.606323,154.898331 1390.869385,154.898331 
	C1390.869385,174.082733 1390.869385,192.821472 1390.869385,212.006470 
	C1404.991089,212.006470 1419.208618,212.006470 1433.921875,212.006470 
	C1433.921875,185.927094 1433.921875,159.687622 1433.921875,133.223633 
	C1439.848145,133.223633 1445.289673,133.223633 1451.245117,133.223633 
	C1451.245117,146.584305 1451.245117,159.981201 1451.245117,173.764664 
	C1454.965332,173.764664 1458.183228,173.764664 1461.837280,173.764664 
	C1461.837280,160.448013 1461.837280,147.027588 1461.837280,133.303070 
	C1467.961670,133.303070 1473.670288,133.303070 1479.610840,133.303070 
	C1479.610840,180.425095 1479.610840,227.349060 1479.610840,274.639771 
	C1473.887695,274.639771 1468.181641,274.639771 1462.091064,274.639771 
	C1462.091064,246.682404 1462.091064,218.757629 1462.091064,190.503204 
	C1458.504761,190.503204 1455.293579,190.503204 1451.594604,190.503204 
	C1451.594604,218.638840 1451.594604,246.560852 1451.594604,274.742493 
	C1445.554565,274.742493 1439.995117,274.742493 1434.070679,274.742493 
	C1434.070679,259.475830 1434.070679,244.377625 1434.070679,228.546890 
	C1421.319458,228.546890 1408.916870,228.546890 1396.018066,228.546753 
z"/>
<path fill="#11558B" opacity="1.000000" stroke="none" 
	d="
M816.449463,162.011841 
	C816.449585,158.523148 816.449585,155.532135 816.449585,152.006012 
	C793.641052,152.006012 771.068176,152.006012 748.162354,152.006012 
	C748.162354,146.560959 748.162354,141.635605 748.162354,136.225845 
	C749.378113,136.155975 750.810547,136.002884 752.243103,136.001923 
	C774.740784,135.986801 797.238464,135.979187 819.736145,135.996704 
	C829.892761,136.004623 834.170227,140.360046 834.174561,150.615372 
	C834.179199,161.447586 834.176208,172.279816 834.176453,183.112030 
	C834.176514,184.734833 834.176453,186.357635 834.176453,188.386749 
	C840.528931,188.386749 846.313049,188.386749 852.467957,188.386749 
	C852.467957,193.676117 852.467957,198.554962 852.467957,204.039673 
	C835.488098,204.039673 818.442017,204.039673 801.125000,204.039673 
	C801.125000,210.561951 801.125000,216.490540 801.125000,223.152481 
	C807.307678,223.152481 813.564758,223.141113 819.821777,223.155060 
	C829.907471,223.177551 834.539551,227.751144 834.548157,237.705582 
	C834.559021,250.180084 834.550781,262.654572 834.550781,275.484863 
	C828.621399,275.484863 823.073425,275.484863 816.923096,275.484863 
	C816.923096,263.451874 816.923096,251.398590 816.923096,238.995148 
	C793.887390,238.995148 771.442993,238.995148 748.575867,238.995148 
	C748.575867,233.759033 748.575867,228.861328 748.575867,223.418640 
	C759.635925,223.418640 770.881531,223.418640 782.472290,223.418640 
	C782.472290,216.844467 782.472290,210.798660 782.472290,204.304398 
	C765.395935,204.304398 748.477417,204.304398 731.277832,204.304398 
	C731.277832,198.935394 731.277832,194.005402 731.277832,188.640961 
	C759.354797,188.640961 787.457825,188.640961 816.449341,188.640961 
	C816.449341,179.663666 816.449341,171.086578 816.449463,162.011841 
z"/>
<path fill="#0E538A" opacity="1.000000" stroke="none" 
	d="
M1092.942871,189.461060 
	C1096.727173,189.461243 1100.022095,189.461243 1103.572266,189.461243 
	C1103.572266,194.763046 1103.572266,199.520630 1103.572266,204.852417 
	C1085.867310,204.852417 1068.153076,204.852417 1050.224854,204.852417 
	C1050.224854,207.829468 1050.224854,210.239273 1050.224854,212.999756 
	C1060.991211,212.999756 1071.593628,212.999756 1082.597656,212.999756 
	C1082.597656,225.376480 1082.597656,237.414978 1082.597656,249.926361 
	C1061.609863,249.926361 1040.541992,249.926361 1019.267944,249.926361 
	C1019.267944,252.962265 1019.267944,255.526642 1019.267944,258.454895 
	C1041.475098,258.454895 1063.419312,258.454895 1085.681152,258.454895 
	C1085.681152,263.362854 1085.681152,267.915222 1085.681152,273.001190 
	C1084.219116,273.001190 1082.776245,273.001160 1081.333374,273.001190 
	C1058.668457,273.001434 1036.003662,273.013214 1013.338745,272.996735 
	C1003.256653,272.989410 998.837952,268.513458 998.837341,258.363220 
	C998.836914,251.697800 998.864868,245.032364 998.897156,238.367020 
	C998.898682,238.061111 999.067383,237.756042 999.326965,236.882889 
	C1020.879639,236.882889 1042.599976,236.882889 1064.567627,236.882889 
	C1064.567627,233.575714 1064.567627,230.840012 1064.567627,227.635315 
	C1042.713867,227.635315 1021.118408,227.635315 999.180725,227.635315 
	C999.180725,222.767578 999.180725,218.358322 999.180725,213.324921 
	C1009.933960,213.324921 1020.810425,213.324921 1031.916260,213.324921 
	C1031.916260,210.304855 1031.916260,207.898193 1031.916260,205.066177 
	C1014.182739,205.066177 996.586792,205.066177 978.729248,205.066177 
	C978.729248,199.868668 978.729248,195.089218 978.729248,189.460876 
	C1016.637451,189.460876 1054.545410,189.460876 1092.942871,189.461060 
z"/>
<path fill="#F49F01" opacity="1.000000" stroke="none" 
	d="
M90.990875,313.979065 
	C93.594986,311.207489 96.199104,308.435913 98.301849,306.197937 
	C89.830170,297.331390 81.408539,288.414673 72.862579,279.618713 
	C68.920876,275.561646 64.582909,271.881958 60.754478,267.727173 
	C59.599529,266.473785 59.081406,264.201447 59.071430,262.391479 
	C58.964046,242.906494 59.016800,223.420639 59.510620,203.466644 
	C62.439243,202.665192 64.880684,202.066177 67.327110,202.045074 
	C77.946281,201.953476 88.566902,202.030441 99.186996,202.046143 
	C99.272568,215.493698 99.557686,228.944626 99.331833,242.386963 
	C99.256218,246.887360 100.412956,250.081711 103.702141,253.246750 
	C121.545288,270.416656 139.164917,287.818878 157.137466,305.411163 
	C152.835526,309.654205 148.732040,313.701508 143.936523,317.710266 
	C141.455261,317.447845 139.666794,317.037048 137.876694,317.029755 
	C124.413803,316.975128 110.947906,317.134430 97.490211,316.864655 
	C95.305359,316.820862 93.156410,314.986023 90.990875,313.979065 
z"/>
<path fill="#F6A802" opacity="1.000000" stroke="none" 
	d="
M405.268188,255.763580 
	C401.878510,254.916656 398.802734,253.152252 395.723389,253.146011 
	C383.687531,253.121613 371.651672,253.715363 359.613129,253.928848 
	C357.017365,253.974869 354.410461,253.395035 351.398438,253.049881 
	C359.554382,244.404846 368.001526,235.688995 376.765045,227.303787 
	C379.149414,225.022339 380.229889,222.907486 380.216431,219.611481 
	C380.102051,191.641693 380.156433,163.671188 380.160126,135.700912 
	C380.160370,133.881042 380.160156,132.061172 380.160156,129.831421 
	C393.510010,129.831421 406.579559,129.831421 420.309937,129.831421 
	C420.394165,131.416779 420.566895,133.161957 420.567780,134.907242 
	C420.584778,168.704666 420.653412,202.502518 420.441620,236.298615 
	C420.425323,238.903519 418.941254,241.950180 417.204407,243.998856 
	C413.667816,248.170456 409.492554,251.800613 405.268188,255.763580 
z"/>
<path fill="#F5A603" opacity="1.000000" stroke="none" 
	d="
M457.488647,252.225586 
	C458.461304,249.555557 460.266724,246.889969 460.280945,244.214844 
	C460.473267,208.087585 460.416504,171.958984 460.421265,135.830704 
	C460.421509,134.009399 460.421265,132.188080 460.421265,129.893250 
	C473.870697,129.893250 487.048065,129.893250 500.805267,129.893250 
	C500.805267,171.302582 500.805267,212.693237 500.312073,254.528519 
	C497.387451,254.648560 494.958740,254.070099 492.524078,254.043854 
	C482.608337,253.936981 472.689301,254.085342 462.775177,253.919403 
	C461.004059,253.889755 459.250366,252.816803 457.488647,252.225586 
z"/>
<path fill="#F39901" opacity="1.000000" stroke="none" 
	d="
M457.202820,252.401947 
	C459.250366,252.816803 461.004059,253.889755 462.775177,253.919403 
	C472.689301,254.085342 482.608337,253.936981 492.524078,254.043854 
	C494.958740,254.070099 497.387451,254.648560 500.216003,254.987793 
	C502.855530,264.598846 497.760040,270.122833 490.589966,275.541077 
	C483.870728,280.618652 478.335693,287.267059 472.302521,293.247437 
	C468.281036,297.233704 464.299866,301.260681 460.326965,305.243134 
	C472.211273,316.890686 484.041412,328.485138 495.821167,340.753723 
	C494.464020,341.951294 493.150696,342.944641 491.851471,342.926514 
	C476.841888,342.716675 461.835052,342.310791 446.825562,342.092255 
	C445.171539,342.068146 443.505310,342.884247 441.844727,343.310638 
	C428.900208,330.870575 415.955719,318.430511 402.486237,305.485901 
	C420.785767,287.698456 438.851379,270.138397 457.202820,252.401947 
z"/>
<path fill="#F28E05" opacity="1.000000" stroke="none" 
	d="
M174.344574,336.013184 
	C202.730148,336.249207 230.826416,336.624878 259.380646,337.001160 
	C259.886932,351.027222 259.935211,365.052765 259.452240,379.540039 
	C245.964417,380.002167 233.007858,380.002533 220.051315,380.002930 
	C220.051315,369.485168 220.051315,358.967438 220.051315,348.449677 
	C219.404739,348.136841 218.758163,347.824005 218.111572,347.511169 
	C214.211441,351.721710 210.370331,355.988861 206.398254,360.130432 
	C199.305618,367.525726 192.340714,375.063416 184.909439,382.105804 
	C181.111847,385.704651 179.059174,389.391571 179.804428,394.640015 
	C180.104279,396.751526 179.829346,398.944641 179.308289,401.556885 
	C165.615601,400.550903 152.450760,399.881409 139.382523,403.014465 
	C139.304535,392.856995 139.097168,382.697205 139.277863,372.544312 
	C139.307449,370.882019 140.744308,368.946930 142.043304,367.652039 
	C152.645096,357.083252 163.368698,346.636597 174.344574,336.013184 
z"/>
<path fill="#10548B" opacity="1.000000" stroke="none" 
	d="
M1329.000000,195.827057 
	C1339.137085,195.827042 1348.774292,195.827042 1358.707275,195.827042 
	C1358.707275,200.856827 1358.707275,205.606796 1358.707275,210.878021 
	C1347.562500,210.878021 1336.332397,210.878021 1324.830078,210.878021 
	C1324.830078,215.782547 1324.830078,220.174484 1324.830078,224.887650 
	C1326.389282,224.986450 1327.837402,225.064529 1329.283447,225.172089 
	C1337.787598,225.804581 1342.163574,230.494476 1342.170898,239.011993 
	C1342.181274,251.124191 1342.173462,263.236389 1342.173462,275.592163 
	C1336.218628,275.592163 1330.777344,275.592163 1324.733643,275.592163 
	C1324.733643,264.248291 1324.733643,252.862793 1324.733643,241.014221 
	C1301.731323,241.014221 1279.319946,241.014221 1256.534424,241.014221 
	C1256.534424,235.662308 1256.534424,230.771561 1256.534424,225.441742 
	C1261.404541,225.441742 1266.327881,225.441742 1271.623413,225.441742 
	C1271.623413,220.496048 1271.623413,215.966537 1271.623413,211.005554 
	C1260.470825,211.005554 1249.390747,211.005554 1238.074097,211.005554 
	C1238.074097,205.849762 1238.074097,201.114944 1238.074097,195.827072 
	C1268.321777,195.827072 1298.410889,195.827072 1329.000000,195.827057 
M1289.832275,221.418335 
	C1290.627319,222.664825 1291.345825,224.921814 1292.230469,224.988983 
	C1296.948975,225.347198 1301.708984,225.157761 1306.555176,225.157761 
	C1306.555176,220.144104 1306.555176,215.762955 1306.555176,210.998489 
	C1303.656738,210.998489 1301.036865,210.998505 1298.416992,210.998505 
	C1295.655273,210.998505 1292.893677,210.998489 1289.831787,210.998489 
	C1289.831787,214.529984 1289.831787,217.488739 1289.832275,221.418335 
z"/>
<path fill="#EC6B01" opacity="1.000000" stroke="none" 
	d="
M259.831024,490.004883 
	C259.831024,525.941040 259.831024,561.877258 259.831024,598.453003 
	C258.317688,597.966797 256.947021,597.677185 255.707153,597.104431 
	C244.857513,592.091858 234.075623,586.929504 223.167236,582.049438 
	C220.381927,580.803284 219.768661,579.096313 219.778580,576.296082 
	C219.880539,547.505737 219.863403,518.715027 220.432373,489.462433 
	C233.933853,489.335266 246.882431,489.670074 259.831024,490.004883 
z"/>
<path fill="#F6A905" opacity="1.000000" stroke="none" 
	d="
M179.830200,223.539398 
	C166.632385,224.008835 153.451401,224.009354 139.827759,224.014038 
	C139.307663,196.705521 139.228851,169.392807 139.154297,142.080109 
	C139.143417,138.096237 139.152786,134.112305 139.152786,129.770844 
	C152.695862,129.770844 165.928680,129.770844 179.847031,129.770844 
	C179.847031,160.920425 179.847031,191.995453 179.830200,223.539398 
z"/>
<path fill="#0F548A" opacity="1.000000" stroke="none" 
	d="
M607.011597,189.735687 
	C604.107971,178.125076 607.590759,168.757248 615.960999,160.211334 
	C610.433594,160.211334 605.548889,160.211334 600.332886,160.211334 
	C600.332886,154.905807 600.332886,149.997940 600.332886,144.609039 
	C609.670410,144.609039 619.096375,144.609039 629.000366,144.609039 
	C629.000366,139.727417 629.000366,135.304245 629.000366,130.523361 
	C635.187561,130.523361 640.899292,130.523361 647.137390,130.523361 
	C647.137390,135.022186 647.137390,139.440964 647.137390,144.371735 
	C657.051025,144.371735 666.463074,144.371735 676.204407,144.371735 
	C676.204407,149.795273 676.204407,154.687866 676.204407,159.929657 
	C670.954102,159.929657 665.858948,159.929657 661.092773,159.929657 
	C663.760620,164.943604 667.274597,169.542816 668.771179,174.724670 
	C673.888794,192.444962 660.117126,210.730881 641.272034,211.988113 
	C625.003540,213.073456 612.853577,205.307938 607.011597,189.735687 
M636.750488,196.947586 
	C639.017456,196.542908 641.429382,196.500748 643.523193,195.663269 
	C649.049377,193.453003 652.269104,187.994095 652.165649,181.734573 
	C652.065552,175.674408 648.343079,170.213394 642.896484,168.136047 
	C637.689453,166.150101 631.705566,167.489090 627.780090,171.669708 
	C619.190735,180.817444 624.706360,195.145691 636.750488,196.947586 
z"/>
<path fill="#0E538A" opacity="1.000000" stroke="none" 
	d="
M1201.004150,234.834518 
	C1210.808105,234.834503 1220.112671,234.834503 1229.708008,234.834503 
	C1229.708008,240.049850 1229.708008,244.976593 1229.708008,250.222931 
	C1189.674805,250.222931 1149.607178,250.222931 1109.186035,250.222931 
	C1109.186035,245.288437 1109.186035,240.397003 1109.186035,235.015549 
	C1117.842407,235.015549 1126.582153,235.015549 1135.838867,235.015549 
	C1135.838867,219.491196 1135.838867,204.435837 1135.838867,189.111694 
	C1141.947266,189.111694 1147.537109,189.111694 1153.693848,189.111694 
	C1153.693848,204.146194 1153.693848,219.207764 1153.693848,234.546967 
	C1158.513184,234.546967 1162.776611,234.546967 1167.612549,234.546967 
	C1167.612549,219.538437 1167.612549,204.488525 1167.612549,189.139496 
	C1173.755249,189.139496 1179.334351,189.139496 1185.525879,189.139496 
	C1185.525879,204.224426 1185.525879,219.285690 1185.525879,234.834534 
	C1190.918335,234.834534 1195.711548,234.834534 1201.004150,234.834518 
z"/>
<path fill="#0F538A" opacity="1.000000" stroke="none" 
	d="
M1543.002930,136.095978 
	C1543.002930,139.037277 1543.002930,141.500748 1543.002930,144.444153 
	C1552.836914,144.444153 1562.242676,144.444153 1571.904297,144.444153 
	C1571.904297,149.697678 1571.904297,154.471329 1571.904297,159.856522 
	C1566.882324,159.856522 1561.701782,159.856522 1556.112183,159.856522 
	C1569.014648,177.733246 1568.344849,193.491867 1554.665039,204.818100 
	C1541.925537,215.365753 1521.386475,214.294067 1510.070068,202.410690 
	C1499.825562,191.652863 1497.773315,174.143112 1511.778564,160.185089 
	C1506.202271,160.185089 1501.228638,160.185089 1496.053467,160.185089 
	C1496.053467,154.783203 1496.053467,150.018799 1496.053467,144.747238 
	C1505.487427,144.747238 1514.880737,144.747238 1524.867798,144.747238 
	C1524.867798,139.723007 1524.867798,135.182755 1524.867798,130.407257 
	C1531.052856,130.407257 1536.646729,130.407257 1543.003052,130.407257 
	C1543.003052,132.128372 1543.003052,133.873245 1543.002930,136.095978 
M1522.302002,191.049484 
	C1528.957031,197.924652 1536.097534,198.894043 1542.519043,193.794342 
	C1548.532227,189.018906 1549.799561,180.188004 1545.408813,173.655609 
	C1541.108643,167.257660 1533.175903,165.370743 1526.626709,169.188034 
	C1519.418213,173.389587 1517.487915,182.067001 1522.302002,191.049484 
z"/>
<path fill="#F29405" opacity="1.000000" stroke="none" 
	d="
M90.682983,314.109619 
	C93.156410,314.986023 95.305359,316.820862 97.490211,316.864655 
	C110.947906,317.134430 124.413803,316.975128 137.876694,317.029755 
	C139.666794,317.037048 141.455261,317.447845 143.628754,317.839233 
	C130.455124,331.399109 116.959167,344.855316 103.284164,358.127106 
	C100.718002,360.617645 99.343452,363.019287 99.504082,366.713318 
	C99.784828,373.169800 99.528023,379.649658 98.927917,386.561157 
	C85.293106,387.005096 72.226852,387.007599 59.160599,387.010071 
	C59.104298,373.860504 58.940727,360.709534 59.114574,347.562988 
	C59.138897,345.723816 60.424992,343.510956 61.796867,342.142761 
	C71.223167,332.741852 80.827843,323.519806 90.682983,314.109619 
z"/>
<path fill="#0E5389" opacity="1.000000" stroke="none" 
	d="
M1640.000488,250.469055 
	C1633.843994,250.469177 1628.187378,250.469177 1622.182861,250.469177 
	C1622.182861,245.330658 1622.182861,240.417419 1622.182861,235.017120 
	C1630.845337,235.017120 1639.585571,235.017120 1648.842041,235.017120 
	C1648.842041,219.493896 1648.842041,204.437439 1648.842041,189.112366 
	C1655.084106,189.112366 1660.804199,189.112366 1666.860596,189.112366 
	C1666.860596,204.199280 1666.860596,219.143921 1666.860596,234.460602 
	C1671.566895,234.460602 1675.955200,234.460602 1680.873169,234.460602 
	C1680.873169,219.463928 1680.873169,204.405716 1680.873169,189.095657 
	C1686.980469,189.095657 1692.571167,189.095657 1698.733887,189.095657 
	C1698.733887,204.180237 1698.733887,219.242813 1698.733887,234.731415 
	C1713.711304,234.731415 1728.130249,234.731415 1742.854126,234.731415 
	C1742.854126,240.057297 1742.854126,244.951035 1742.854126,250.468918 
	C1708.667236,250.468918 1674.583740,250.468918 1640.000488,250.469055 
z"/>
<path fill="#EC6901" opacity="1.000000" stroke="none" 
	d="
M339.944733,505.001465 
	C340.018860,529.319458 340.121460,553.637512 340.079041,577.955261 
	C340.077026,579.114746 339.073151,580.845703 338.060699,581.342896 
	C325.709137,587.408081 313.268555,593.291870 300.027008,599.616272 
	C300.027008,567.705261 300.027008,536.818542 300.554443,505.466675 
	C314.036194,505.001495 326.990448,505.001465 339.944733,505.001465 
z"/>
<path fill="#EF7D01" opacity="1.000000" stroke="none" 
	d="
M59.095345,387.474030 
	C72.226852,387.007599 85.293106,387.005096 98.771408,387.002258 
	C99.309662,397.628876 99.528465,408.255676 99.542870,418.882782 
	C99.573296,441.332733 99.496742,463.782806 99.464539,486.232849 
	C99.462410,487.717804 99.464264,489.202759 99.464264,492.086792 
	C97.314873,490.034973 95.807503,488.908142 94.687027,487.478180 
	C83.426376,473.107208 72.155815,458.742279 61.108372,444.208160 
	C59.746525,442.416473 59.110477,439.652954 59.088158,437.330658 
	C58.929939,420.867767 59.019505,404.402496 59.095345,387.474030 
z"/>
<path fill="#EF7900" opacity="1.000000" stroke="none" 
	d="
M139.295776,403.474731 
	C152.450760,399.881409 165.615601,400.550903 179.209717,402.014038 
	C179.681473,427.037262 179.744080,452.059601 179.267868,477.542419 
	C165.614304,477.007782 152.152344,480.563599 139.386017,475.001404 
	C139.327026,451.312592 139.268036,427.623810 139.295776,403.474731 
z"/>
<path fill="#EE7500" opacity="1.000000" stroke="none" 
	d="
M340.037964,504.540619 
	C326.990448,505.001465 314.036194,505.001495 300.624207,505.002991 
	C300.120850,479.647400 300.075226,454.290375 300.521851,428.467529 
	C313.990082,428.001709 326.966034,428.001740 339.942017,428.001740 
	C340.005066,453.361084 340.068146,478.720428 340.037964,504.540619 
z"/>
<path fill="#F6AB06" opacity="1.000000" stroke="none" 
	d="
M99.341309,201.598114 
	C88.566902,202.030441 77.946281,201.953476 67.327110,202.045074 
	C64.880684,202.066177 62.439243,202.665192 59.577061,203.002670 
	C59.158615,178.711029 59.158615,154.415009 59.158615,129.761826 
	C72.474884,129.761826 85.684830,129.761826 99.495621,129.761826 
	C99.495621,153.660583 99.495621,177.405334 99.341309,201.598114 
z"/>
<path fill="#F18B0A" opacity="1.000000" stroke="none" 
	d="
M351.962830,359.377808 
	C362.930695,359.046570 374.042603,359.178436 385.146851,358.945343 
	C392.222107,358.796875 399.286041,358.107544 406.645874,357.391418 
	C410.974243,361.035736 415.115448,364.851105 418.977814,368.930450 
	C419.969696,369.977997 420.522736,371.855530 420.530884,373.355835 
	C420.611877,388.279114 420.536163,403.203247 419.934631,418.565369 
	C406.367523,419.008575 393.370514,419.013519 380.373535,419.018433 
	C380.294525,409.864716 380.428619,400.700897 379.996490,391.563843 
	C379.878815,389.075348 378.638336,386.106873 376.916443,384.318237 
	C368.835815,375.924438 360.407684,367.865112 351.962830,359.377808 
z"/>
<path fill="#EF7900" opacity="1.000000" stroke="none" 
	d="
M259.905212,489.541077 
	C246.882431,489.670074 233.933853,489.335266 220.520355,489.000946 
	C219.997452,466.309448 219.939453,443.617432 220.433975,420.463257 
	C228.485107,420.000732 235.986450,420.123962 243.481400,419.958710 
	C248.935913,419.838470 254.382050,419.337189 259.831909,419.005768 
	C259.881042,442.362915 259.930206,465.720093 259.905212,489.541077 
z"/>
<path fill="#ED6E01" opacity="1.000000" stroke="none" 
	d="
M139.294617,475.461792 
	C152.152344,480.563599 165.614304,477.007782 179.172134,478.001770 
	C179.679581,503.695831 179.743973,529.391052 179.459000,555.532104 
	C178.755753,555.994141 178.401871,556.010315 178.047974,556.026428 
	C165.699371,547.359802 153.306747,538.754150 141.073990,529.927002 
	C139.921509,529.095337 139.252823,526.873474 139.241608,525.290833 
	C139.124985,508.835358 139.189209,492.378571 139.294617,475.461792 
z"/>
<path fill="#EE7700" opacity="1.000000" stroke="none" 
	d="
M380.289490,419.478943 
	C393.370514,419.013519 406.367523,419.008575 419.777161,419.006897 
	C420.314453,433.577820 420.464417,448.145386 420.552032,462.713287 
	C420.590881,469.174255 420.503662,475.635925 419.950348,482.550781 
	C416.003052,483.336182 412.582367,483.907532 409.154510,483.954254 
	C399.567383,484.084900 389.977325,483.998535 380.388428,483.997803 
	C380.327423,462.645020 380.266449,441.292236 380.289490,419.478943 
z"/>
<path fill="#0F538A" opacity="1.000000" stroke="none" 
	d="
M1670.000000,138.997101 
	C1684.821289,138.996933 1699.142578,138.971329 1713.463867,139.005630 
	C1722.861328,139.028137 1727.525635,143.719101 1727.533325,153.118591 
	C1727.550659,174.433975 1727.538330,195.749390 1727.537964,217.064789 
	C1727.537964,218.537811 1727.537842,220.010818 1727.537842,221.736115 
	C1721.561768,221.736115 1716.005981,221.736115 1710.034180,221.736115 
	C1710.034180,199.515930 1710.034180,177.448746 1710.034180,154.885376 
	C1685.252930,154.885376 1660.878174,154.885376 1636.252563,154.885376 
	C1636.252563,149.468491 1636.252563,144.545319 1636.252563,138.997101 
	C1647.323242,138.997101 1658.411621,138.997101 1670.000000,138.997101 
z"/>
<path fill="#10548A" opacity="1.000000" stroke="none" 
	d="
M919.162354,141.508621 
	C924.215149,144.246826 926.244141,148.061050 926.083435,153.538269 
	C925.800171,163.191605 926.192200,172.865173 925.886902,182.517151 
	C925.797729,185.334259 925.150574,188.975739 923.318787,190.763626 
	C907.475647,206.227448 891.303345,221.354034 875.273254,236.539307 
	C872.973511,234.186478 869.205078,230.330948 864.493774,225.510803 
	C867.669922,222.687317 871.401855,219.645889 874.816528,216.282333 
	C884.903564,206.346405 894.956421,196.371063 904.785889,186.182800 
	C906.411255,184.498108 907.578674,181.699936 907.693909,179.354233 
	C908.060242,171.896408 907.829529,164.409241 907.829529,156.400116 
	C892.621338,156.400116 877.719910,156.400116 862.491943,156.400116 
	C862.491943,150.817551 862.491943,145.765594 862.491943,140.155853 
	C871.935425,140.155853 881.214233,140.155548 890.492981,140.155945 
	C897.989075,140.156265 905.486572,140.079239 912.980347,140.211472 
	C914.932190,140.245911 916.872559,140.934082 919.162354,141.508621 
z"/>
<path fill="#F08500" opacity="1.000000" stroke="none" 
	d="
M340.034210,427.540680 
	C326.966034,428.001740 313.990082,428.001709 300.590454,428.003723 
	C300.121796,406.648041 300.076752,385.290375 300.099976,363.468689 
	C313.160522,362.670624 326.152802,362.336548 339.545166,362.002502 
	C340.005676,383.694885 340.066040,405.387268 340.034210,427.540680 
z"/>
<path fill="#10548B" opacity="1.000000" stroke="none" 
	d="
M1264.987061,154.106339 
	C1269.420654,137.524551 1282.225830,127.668304 1298.596680,127.848526 
	C1314.513916,128.023743 1327.817627,138.209122 1331.300903,152.886795 
	C1335.286255,169.680466 1324.099609,186.316711 1306.044312,190.447266 
	C1285.950806,195.044113 1266.503540,181.721603 1264.631470,161.975830 
	C1264.398804,159.523117 1264.829468,157.007538 1264.987061,154.106339 
M1304.006836,174.870468 
	C1304.883911,174.402298 1305.805054,174.000977 1306.630859,173.455444 
	C1313.916016,168.643234 1316.271606,159.077469 1312.057251,151.520187 
	C1307.956543,144.166351 1299.482056,141.212753 1292.007568,144.532227 
	C1284.288574,147.960281 1280.480103,157.363739 1283.513062,165.505753 
	C1286.535645,173.619568 1294.540039,177.505936 1304.006836,174.870468 
z"/>
<path fill="#0F538A" opacity="1.000000" stroke="none" 
	d="
M1196.997437,179.000000 
	C1196.997437,170.855347 1196.997437,163.210663 1196.997437,155.052017 
	C1172.412231,155.052017 1148.042969,155.052017 1123.337402,155.052017 
	C1123.337402,149.505615 1123.337402,144.469376 1123.337402,138.997086 
	C1125.555908,138.997086 1127.677124,138.997101 1129.798340,138.997086 
	C1153.114380,138.997040 1176.430298,138.984726 1199.746338,139.002609 
	C1209.960693,139.010437 1214.168335,143.284470 1214.169189,153.560638 
	C1214.171021,174.378510 1214.169922,195.196365 1214.169922,216.014236 
	C1214.169922,217.821518 1214.169800,219.628784 1214.169800,221.715515 
	C1208.451660,221.715515 1203.036743,221.715515 1196.997437,221.715515 
	C1196.997437,207.672684 1196.997437,193.586334 1196.997437,179.000000 
z"/>
<path fill="#0D5289" opacity="1.000000" stroke="none" 
	d="
M946.837097,180.999969 
	C946.837097,164.862747 946.837097,149.225525 946.837097,133.294998 
	C952.871216,133.294998 958.620117,133.294998 964.686890,133.294998 
	C964.686890,180.300781 964.686890,227.353287 964.686890,274.703033 
	C958.983398,274.703033 953.243958,274.703033 946.837097,274.703033 
	C946.837097,243.652283 946.837097,212.576126 946.837097,180.999969 
z"/>
<path fill="#ED6E01" opacity="1.000000" stroke="none" 
	d="
M380.295990,484.458313 
	C389.977325,483.998535 399.567383,484.084900 409.154510,483.954254 
	C412.582367,483.907532 416.003052,483.336182 419.799316,482.992126 
	C420.261414,497.762848 420.418640,512.546082 420.323059,527.327759 
	C420.314697,528.620605 418.909332,530.268311 417.707947,531.133118 
	C406.119995,539.474731 394.436676,547.683838 382.151642,555.973816 
	C381.130920,556.008911 380.739227,556.000977 380.347504,555.993103 
	C380.299530,532.301697 380.251526,508.610260 380.295990,484.458313 
z"/>
<path fill="#F18D00" opacity="1.000000" stroke="none" 
	d="
M441.985413,343.604980 
	C443.505310,342.884247 445.171539,342.068146 446.825562,342.092255 
	C461.835052,342.310791 476.841888,342.716675 491.851471,342.926514 
	C493.150696,342.944641 494.464020,341.951294 495.958618,341.049988 
	C499.988068,342.951508 501.027008,346.278900 500.935913,350.707153 
	C500.652344,364.494141 500.813354,378.290253 500.263184,392.543121 
	C486.759796,393.354523 473.795135,393.705597 460.830505,394.056702 
	C460.700470,384.626160 460.733795,375.188385 460.318756,365.770416 
	C460.222137,363.577637 459.089935,360.999817 457.591187,359.378387 
	C452.644165,354.026459 447.311005,349.031403 441.985413,343.604980 
z"/>
<path fill="#0E5389" opacity="1.000000" stroke="none" 
	d="
M723.000610,179.144485 
	C723.000549,182.918991 723.000549,186.213730 723.000549,189.882019 
	C717.039368,189.882019 711.437683,189.882019 705.322937,189.882019 
	C705.322937,205.155930 705.322937,220.066406 705.322937,235.252289 
	C699.228516,235.252289 693.652039,235.252289 687.768433,235.252289 
	C687.768433,201.131027 687.768433,167.237366 687.768433,133.088989 
	C693.511414,133.088989 699.084045,133.088989 705.104370,133.088989 
	C705.104370,146.687515 705.104370,160.100769 705.104370,173.964478 
	C711.111023,173.964478 716.694214,173.964478 722.664490,173.964478 
	C722.796753,175.813309 722.898743,177.239014 723.000610,179.144485 
z"/>
<path fill="#11558B" opacity="1.000000" stroke="none" 
	d="
M1070.464600,155.591614 
	C1078.164062,160.237732 1085.563965,164.674744 1093.395264,169.370514 
	C1091.206299,173.666855 1089.133789,177.734802 1086.827637,182.261368 
	C1075.390137,175.812714 1063.776489,170.082596 1053.080933,162.971848 
	C1044.745117,157.429993 1038.108276,156.907120 1029.553467,162.767181 
	C1018.916016,170.053986 1007.159790,175.707657 995.556580,182.252808 
	C993.313782,177.921173 991.198303,173.835541 988.927002,169.448898 
	C1001.461365,161.901535 1013.704651,154.236557 1026.261841,147.125793 
	C1030.707153,144.608505 1033.079712,141.857010 1032.196655,136.675140 
	C1031.925903,135.086395 1032.154663,133.412567 1032.154663,131.471542 
	C1038.136353,131.471542 1043.711670,131.471542 1049.563843,131.471542 
	C1049.689453,131.968018 1050.078857,132.622864 1049.958618,133.164795 
	C1048.118774,141.470337 1052.399170,145.908066 1059.431885,149.056396 
	C1063.198608,150.742722 1066.599243,153.247238 1070.464600,155.591614 
z"/>
<path fill="#14578D" opacity="1.000000" stroke="none" 
	d="
M1598.184326,262.989410 
	C1598.184326,267.443512 1598.184326,271.399414 1598.184326,275.596771 
	C1592.107422,275.596771 1586.542114,275.596771 1580.426025,275.596771 
	C1580.426025,264.273071 1580.426025,253.193298 1580.426025,241.628571 
	C1559.636108,241.628571 1539.387817,241.628571 1518.791504,241.628571 
	C1518.791504,236.237305 1518.791504,231.338745 1518.791504,226.463852 
	C1519.132446,226.264023 1519.405640,225.963882 1519.679321,225.963440 
	C1541.670288,225.927979 1563.662476,225.774765 1585.651367,225.976624 
	C1593.644165,226.049973 1598.156860,231.140121 1598.178223,238.994797 
	C1598.199585,246.826889 1598.183838,254.659088 1598.184326,262.989410 
z"/>
<path fill="#13568C" opacity="1.000000" stroke="none" 
	d="
M695.974121,273.010223 
	C676.162659,273.010376 656.847656,273.026245 637.532715,273.004059 
	C627.797607,272.992859 623.161438,268.344757 623.152893,258.666901 
	C623.144104,248.708954 623.150940,238.751007 623.150940,228.473129 
	C629.450073,228.473129 635.339539,228.473129 641.625549,228.473129 
	C641.625549,237.844040 641.625549,247.104843 641.625549,256.919250 
	C663.376404,256.919250 684.748291,256.919250 706.483521,256.919250 
	C706.483521,262.370300 706.483521,267.278961 706.483521,273.010223 
	C703.283813,273.010223 699.877197,273.010223 695.974121,273.010223 
z"/>
<path fill="#13568C" opacity="1.000000" stroke="none" 
	d="
M1598.181152,208.974304 
	C1598.181152,212.124466 1598.181152,214.777603 1598.181152,217.805237 
	C1592.419067,217.805237 1586.851562,217.805237 1580.857178,217.805237 
	C1580.857178,189.738678 1580.857178,161.566055 1580.857178,133.209854 
	C1586.539307,133.209854 1592.124634,133.209854 1598.055542,133.209854 
	C1598.055542,144.355530 1598.055542,155.285660 1598.055542,166.750549 
	C1604.761230,166.750549 1611.156128,166.750549 1617.859619,166.750549 
	C1617.859619,172.315826 1617.859619,177.345932 1617.859619,182.779907 
	C1611.364746,182.779907 1605.091797,182.779907 1598.181152,182.779907 
	C1598.181152,191.602234 1598.181152,200.039764 1598.181152,208.974304 
z"/>
<path fill="#F08500" opacity="1.000000" stroke="none" 
	d="
M259.905212,418.541779 
	C254.382050,419.337189 248.935913,419.838470 243.481400,419.958710 
	C235.986450,420.123962 228.485107,420.000732 220.521729,420.001770 
	C219.998581,406.977264 219.940216,393.951996 219.966583,380.464844 
	C233.007858,380.002533 245.964417,380.002167 259.378845,380.003967 
	C259.883972,392.696655 259.931244,405.387238 259.905212,418.541779 
z"/>
<path fill="#F08000" opacity="1.000000" stroke="none" 
	d="
M460.722595,394.506531 
	C473.795135,393.705597 486.759796,393.354523 500.166931,393.002319 
	C500.673340,406.027527 500.737183,419.053864 500.332703,432.528992 
	C497.879486,432.319061 495.888000,431.076111 493.910828,431.098389 
	C482.881897,431.222565 471.856476,431.653107 460.829834,431.978882 
	C460.758118,419.638031 460.686432,407.297211 460.722595,394.506531 
z"/>
<path fill="#EE7701" opacity="1.000000" stroke="none" 
	d="
M460.684387,432.427368 
	C471.856476,431.653107 482.881897,431.222565 493.910828,431.098389 
	C495.888000,431.076111 497.879486,432.319061 500.237427,432.988220 
	C501.528473,438.281708 500.377838,442.779541 496.874237,447.129944 
	C485.527435,461.219177 474.522461,475.583618 463.363800,489.824799 
	C462.789398,490.557953 462.010559,491.130859 460.538910,492.524658 
	C460.538910,471.989777 460.538910,452.432800 460.684387,432.427368 
z"/>
<path fill="#F28E05" opacity="1.000000" stroke="none" 
	d="
M178.190369,556.241211 
	C178.401871,556.010315 178.755753,555.994141 179.375580,555.994263 
	C179.205276,556.159119 178.769028,556.307617 178.190369,556.241211 
z"/>
<path fill="#F18B0A" opacity="1.000000" stroke="none" 
	d="
M380.316711,556.276123 
	C380.739227,556.000977 381.130920,556.008911 381.814453,556.047729 
	C381.499451,556.238892 380.892670,556.398987 380.316711,556.276123 
z"/>
<path fill="#FFFFFF" opacity="1.000000" stroke="none" 
	d="
M1180.000732,351.838135 
	C1185.499023,351.840881 1190.498779,351.890991 1195.496948,351.827362 
	C1198.185791,351.793152 1199.475708,352.897003 1199.469604,355.670685 
	C1199.433716,371.969696 1199.452026,388.268799 1199.452026,404.861938 
	C1186.824219,404.861938 1174.567993,404.861938 1161.887085,404.861938 
	C1161.773804,403.475494 1161.559814,402.058563 1161.557373,400.641266 
	C1161.532593,386.310699 1161.726074,371.976379 1161.439331,357.651489 
	C1161.343872,352.892426 1163.010010,351.432709 1167.508667,351.775665 
	C1171.484741,352.078796 1175.502197,351.838531 1180.000732,351.838135 
z"/>
<path fill="#FEFFFF" opacity="1.000000" stroke="none" 
	d="
M904.843872,356.093903 
	C904.502869,353.023254 905.140564,351.713409 908.236633,351.770508 
	C918.394775,351.957855 928.558777,351.891754 938.719727,351.811737 
	C941.675232,351.788483 943.012573,353.018768 943.000671,355.945923 
	C942.967346,364.108246 943.128418,372.274414 942.929016,380.432068 
	C942.779663,386.542633 939.459900,389.752319 933.019226,389.900391 
	C923.877075,390.110626 914.726440,389.953766 904.843750,389.953766 
	C904.843750,378.728546 904.843750,367.656281 904.843872,356.093903 
z"/>
<path fill="#FDFEFE" opacity="1.000000" stroke="none" 
	d="
M812.461670,360.062866 
	C812.461792,394.035797 812.462524,427.518402 812.461853,461.000977 
	C812.461670,468.835815 812.459534,468.836334 804.393311,468.837036 
	C796.564087,468.837708 788.734741,468.853119 780.905579,468.831696 
	C775.415833,468.816650 774.280945,467.679535 774.174561,462.082855 
	C774.120728,459.252045 774.164917,456.419312 774.164978,453.587463 
	C774.165039,422.103821 774.161072,390.620209 774.168396,359.136566 
	C774.170044,351.995850 774.343201,351.836975 781.432922,351.833679 
	C789.262207,351.830017 797.091431,351.831543 804.920715,351.833160 
	C812.459229,351.834717 812.459229,351.836029 812.461670,360.062866 
z"/>
<path fill="#FBFCFD" opacity="1.000000" stroke="none" 
	d="
M1289.832031,220.932922 
	C1289.831787,217.488739 1289.831787,214.529984 1289.831787,210.998489 
	C1292.893677,210.998489 1295.655273,210.998505 1298.416992,210.998505 
	C1301.036865,210.998505 1303.656738,210.998489 1306.555176,210.998489 
	C1306.555176,215.762955 1306.555176,220.144104 1306.555176,225.157761 
	C1301.708984,225.157761 1296.948975,225.347198 1292.230469,224.988983 
	C1291.345825,224.921814 1290.627319,222.664825 1289.832031,220.932922 
z"/>
<path fill="#FBFCFD" opacity="1.000000" stroke="none" 
	d="
M636.346130,196.909393 
	C624.706360,195.145691 619.190735,180.817444 627.780090,171.669708 
	C631.705566,167.489090 637.689453,166.150101 642.896484,168.136047 
	C648.343079,170.213394 652.065552,175.674408 652.165649,181.734573 
	C652.269104,187.994095 649.049377,193.453003 643.523193,195.663269 
	C641.429382,196.500748 639.017456,196.542908 636.346130,196.909393 
z"/>
<path fill="#FBFCFD" opacity="1.000000" stroke="none" 
	d="
M1522.103027,190.734039 
	C1517.487915,182.067001 1519.418213,173.389587 1526.626709,169.188034 
	C1533.175903,165.370743 1541.108643,167.257660 1545.408813,173.655609 
	C1549.799561,180.188004 1548.532227,189.018906 1542.519043,193.794342 
	C1536.097534,198.894043 1528.957031,197.924652 1522.103027,190.734039 
z"/>
<path fill="#FBFCFD" opacity="1.000000" stroke="none" 
	d="
M1303.627197,174.978943 
	C1294.540039,177.505936 1286.535645,173.619568 1283.513062,165.505753 
	C1280.480103,157.363739 1284.288574,147.960281 1292.007568,144.532227 
	C1299.482056,141.212753 1307.956543,144.166351 1312.057251,151.520187 
	C1316.271606,159.077469 1313.916016,168.643234 1306.630859,173.455444 
	C1305.805054,174.000977 1304.883911,174.402298 1303.627197,174.978943 
z"/>
</svg>